<svg width="24" height="24" fill="none" xmlns="http://www.w3.org/2000/svg"><path d="M13.668 9.613c.348-.329.782-.676 1.304-1.042a42.708 42.708 0 011.563-1.152 13.92 13.92 0 011.669-1.042c.556-.33 1.042-.567 1.46-.714l1.25-.439L23 12.027l-1.251.44a8.483 8.483 0 01-1.564.329c-.591.073-1.217.128-1.877.164h-3.597c.417.293.869.64 1.355 1.042.522.366 1.026.769 1.512 1.207.521.403 1.008.823 1.46 1.262.452.44.817.86 1.095 1.262l.834 1.152L15.44 23l-.782-1.097c-.278-.366-.556-.841-.834-1.427a93.446 93.446 0 01-.73-1.81 24.82 24.82 0 01-.626-1.92c-.174-.622-.33-1.19-.469-1.701-.139.512-.295 1.079-.47 1.7a24.82 24.82 0 01-.625 1.92 27.912 27.912 0 01-.782 1.811c-.243.585-.504 1.061-.782 1.427L8.56 23l-5.526-4.115.834-1.152a8.652 8.652 0 011.095-1.262c.452-.439.921-.86 1.408-1.261a35.096 35.096 0 011.512-1.208c.52-.402.99-.75 1.407-1.042H5.691a27.805 27.805 0 01-1.876-.165 8.484 8.484 0 01-1.564-.329L1 12.027l2.085-6.803 1.251.44c.418.146.904.383 1.46.713.556.292 1.095.64 1.616 1.042.556.366 1.078.75 1.564 1.152.522.366.973.713 1.356 1.042a65.767 65.767 0 01-.574-1.645l-.521-1.975a51.914 51.914 0 01-.47-1.92 11.104 11.104 0 01-.156-1.701V1h6.778v1.372c0 .475-.07 1.042-.209 1.7a21.4 21.4 0 01-.417 1.92 42.192 42.192 0 01-.573 1.976 22.41 22.41 0 01-.522 1.645z" fill="#fff"/></svg>