<svg width="24" height="24" viewBox="0 0 24 24" fill="none" xmlns="http://www.w3.org/2000/svg">
<g id="Frame 22">
<path id="*" d="M13.6682 9.61347C14.0158 9.28429 14.4502 8.93682 14.9716 8.57107C15.4929 8.16874 16.0142 7.7847 16.5355 7.41895C17.0916 7.01663 17.6477 6.66916 18.2038 6.37656C18.7599 6.04738 19.2464 5.80964 19.6635 5.66334L20.9147 5.22444L23 12.0274L21.7488 12.4663C21.297 12.6126 20.7757 12.7224 20.1848 12.7955C19.594 12.8687 18.9684 12.9235 18.3081 12.9601C17.6477 12.9601 17.0047 12.9601 16.3791 12.9601C15.7536 12.9601 15.1975 12.9601 14.7109 12.9601C15.128 13.2527 15.5798 13.6002 16.0664 14.0025C16.5877 14.3682 17.0916 14.7706 17.5782 15.2095C18.0995 15.6118 18.5861 16.0324 19.0379 16.4713C19.4897 16.9102 19.8547 17.3308 20.1327 17.7332L20.9668 18.8853L15.4408 23L14.6588 21.9027C14.3807 21.537 14.1027 21.0615 13.8246 20.4763C13.5814 19.8911 13.3381 19.2876 13.0948 18.6658C12.8515 18.0075 12.643 17.3674 12.4692 16.7456C12.2954 16.1239 12.139 15.5569 12 15.0449C11.861 15.5569 11.7046 16.1239 11.5308 16.7456C11.357 17.3674 11.1485 18.0075 10.9052 18.6658C10.6619 19.2876 10.4013 19.8911 10.1232 20.4763C9.87994 21.0615 9.61927 21.537 9.34123 21.9027L8.55924 23L3.03318 18.8853L3.8673 17.7332C4.14534 17.3308 4.51027 16.9102 4.96209 16.4713C5.4139 16.0324 5.8831 15.6118 6.36967 15.2095C6.891 14.7706 7.39494 14.3682 7.88152 14.0025C8.40284 13.6002 8.87204 13.2527 9.2891 12.9601C8.80253 12.9601 8.24645 12.9601 7.62085 12.9601C6.99526 12.9601 6.35229 12.9601 5.69194 12.9601C5.0316 12.9235 4.406 12.8687 3.81517 12.7955C3.22433 12.7224 2.703 12.6126 2.25118 12.4663L1 12.0274L3.08531 5.22444L4.33649 5.66334C4.75355 5.80964 5.24013 6.04738 5.79621 6.37656C6.35229 6.66916 6.891 7.01663 7.41232 7.41895C7.9684 7.7847 8.48973 8.16874 8.9763 8.57107C9.49763 8.93682 9.94945 9.28429 10.3318 9.61347C10.158 9.13799 9.96683 8.58936 9.75829 7.96758C9.58452 7.30923 9.41074 6.65087 9.23697 5.99252C9.06319 5.33416 8.90679 4.6941 8.76777 4.07232C8.66351 3.41396 8.61137 2.84705 8.61137 2.37157V1H15.3886V2.37157C15.3886 2.84705 15.3191 3.41396 15.1801 4.07232C15.0758 4.6941 14.9368 5.33416 14.763 5.99252C14.5893 6.65087 14.3981 7.30923 14.1896 7.96758C14.0158 8.58936 13.842 9.13799 13.6682 9.61347Z" fill="white"/>
</g>
</svg>
