<svg width="154" height="43" fill="none" xmlns="http://www.w3.org/2000/svg"><path d="M4.427 40.23a4.094 4.094 0 01-1.533-.276 3.262 3.262 0 01-1.188-.807 3.712 3.712 0 01-.772-1.303c-.177-.523-.265-1.118-.265-1.787 0-.669.1-1.26.3-1.775a3.92 3.92 0 01.83-1.315 3.493 3.493 0 011.21-.807 3.936 3.936 0 011.476-.276c.33 0 .626.023.888.069.269.046.5.1.691.161.2.062.362.123.485.185.123.061.207.107.253.138l-.322.922a1.79 1.79 0 00-.3-.15 5.843 5.843 0 00-.45-.161 3.303 3.303 0 00-.542-.127 2.986 2.986 0 00-.588-.057 2.85 2.85 0 00-1.141.219 2.36 2.36 0 00-.865.634 2.928 2.928 0 00-.553 1.014 4.422 4.422 0 00-.185 1.326c0 .477.054.911.162 1.303.115.392.284.73.507 1.015.223.276.5.492.83.645.338.154.73.23 1.176.23.515 0 .942-.053 1.28-.16.338-.108.592-.204.76-.289l.289.922a1.83 1.83 0 01-.288.15 4.754 4.754 0 01-.52.162 6.49 6.49 0 01-1.625.196zm10.775-6.121c0 .276-.057.545-.173.807a3.865 3.865 0 01-.438.76 8.837 8.837 0 01-.622.739c-.231.238-.462.472-.692.703l-.461.461c-.17.177-.33.361-.485.553a5.335 5.335 0 00-.392.554c-.1.177-.15.33-.15.461h3.678v.91h-4.842a.84.84 0 01-.011-.138v-.126c0-.362.057-.696.172-1.003.123-.316.281-.611.473-.888a6.24 6.24 0 01.646-.784c.238-.246.473-.484.703-.715.192-.184.373-.365.542-.542a5.53 5.53 0 00.461-.542c.138-.184.246-.373.323-.565a1.5 1.5 0 00.127-.61c0-.231-.039-.427-.116-.589a1.106 1.106 0 00-.288-.403 1.09 1.09 0 00-.438-.23 1.63 1.63 0 00-.519-.082 1.9 1.9 0 00-.61.093c-.185.061-.35.134-.496.219a1.728 1.728 0 00-.37.253l-.23.196-.53-.76c.069-.077.173-.17.311-.277.138-.116.304-.223.496-.323s.407-.185.645-.254c.239-.069.496-.103.773-.103.838 0 1.464.196 1.88.587.422.385.633.93.633 1.638zm1.7 1.948c0-1.337.235-2.367.704-3.09.476-.722 1.133-1.083 1.971-1.083.838 0 1.491.36 1.96 1.083.477.723.715 1.753.715 3.09 0 1.338-.238 2.367-.715 3.09-.469.723-1.122 1.084-1.96 1.084-.838 0-1.495-.361-1.971-1.084-.47-.722-.704-1.752-.704-3.09zm4.22 0c0-.438-.027-.853-.08-1.245a3.786 3.786 0 00-.254-1.026 1.704 1.704 0 00-.473-.692 1.074 1.074 0 00-.738-.265c-.292 0-.538.088-.738.265-.2.17-.361.4-.484.692a4.45 4.45 0 00-.254 1.026c-.046.392-.069.807-.069 1.245 0 .438.023.853.07 1.245.053.392.138.734.253 1.026.123.292.284.527.484.704.2.169.446.253.738.253s.538-.084.738-.253c.2-.177.357-.411.473-.704.123-.292.207-.634.253-1.026.054-.392.081-.807.081-1.245zm2.288 0c0-1.337.235-2.367.703-3.09.477-.722 1.134-1.083 1.972-1.083.838 0 1.491.36 1.96 1.083.476.723.715 1.753.715 3.09 0 1.338-.239 2.367-.715 3.09-.469.723-1.122 1.084-1.96 1.084-.838 0-1.495-.361-1.972-1.084-.468-.722-.703-1.752-.703-3.09zm4.22 0c0-.438-.027-.853-.08-1.245a3.782 3.782 0 00-.255-1.026 1.703 1.703 0 00-.472-.692 1.074 1.074 0 00-.738-.265c-.292 0-.538.088-.738.265-.2.17-.361.4-.484.692a4.45 4.45 0 00-.254 1.026c-.046.392-.069.807-.069 1.245 0 .438.023.853.07 1.245.053.392.137.734.253 1.026.123.292.284.527.484.704.2.169.446.253.738.253s.538-.084.738-.253a1.8 1.8 0 00.473-.704c.123-.292.207-.634.253-1.026.054-.392.08-.807.08-1.245zm7.488-.795c0 1.583-.396 2.782-1.188 3.597-.784.807-1.952 1.214-3.505 1.222l-.034-.9c.484 0 .918-.045 1.303-.138a3.027 3.027 0 001.026-.438 2.58 2.58 0 00.726-.795c.2-.323.346-.719.438-1.188-.2.092-.426.17-.68.23a3.692 3.692 0 01-.784.081c-.454 0-.838-.065-1.153-.196a2.214 2.214 0 01-.773-.541 2.186 2.186 0 01-.438-.785 3.422 3.422 0 01-.127-.933c0-.285.05-.58.15-.888.1-.308.25-.588.45-.842.207-.253.469-.461.784-.622.315-.162.688-.242 1.118-.242.439 0 .823.076 1.153.23.338.154.619.377.842.669.23.292.404.65.519 1.072.115.415.173.884.173 1.407zm-2.583.795c.27 0 .523-.023.761-.069.238-.054.469-.13.692-.23.008-.085.011-.166.011-.243v-.253c0-.33-.023-.646-.069-.946a2.364 2.364 0 00-.254-.795 1.356 1.356 0 00-.472-.542c-.2-.139-.454-.208-.761-.208a1.22 1.22 0 00-.646.162 1.412 1.412 0 00-.438.415c-.115.161-.2.342-.254.542-.046.192-.069.38-.069.565 0 .522.123.922.37 1.199.253.269.63.403 1.13.403zm7.95-1.095h-2.641v5.096h-1.072v-5.995h3.712v.899zm4.823 4.289c.046.008.112.015.196.023.085.008.18.015.288.023.108 0 .22.004.335.011h.346c.223 0 .434-.015.634-.046.207-.03.384-.084.53-.161a.923.923 0 00.358-.3.839.839 0 00.138-.496.816.816 0 00-.127-.472.838.838 0 00-.323-.312 1.502 1.502 0 00-.495-.161 3.648 3.648 0 00-.6-.046h-1.28v1.937zm1.142-2.733c.207 0 .395-.011.564-.034.177-.031.327-.081.45-.15a.774.774 0 00.415-.715c0-.184-.046-.33-.138-.438a.838.838 0 00-.37-.242 1.64 1.64 0 00-.506-.115 4.542 4.542 0 00-.565-.035 14.287 14.287 0 00-.992.035v1.694h1.142zm-.024 3.644c-.453 0-.872-.023-1.256-.07a7.06 7.06 0 01-.911-.138V34.12c.223-.054.526-.1.91-.138.385-.046.804-.07 1.258-.07.315 0 .622.028.922.081.3.054.565.146.795.277.231.123.416.296.554.519.146.215.219.484.219.807 0 .292-.073.542-.22.75a1.46 1.46 0 01-.587.484c.33.115.592.288.784.518.2.223.3.538.3.946 0 .361-.073.66-.22.9-.138.237-.334.43-.587.576a2.456 2.456 0 01-.877.3c-.338.06-.7.092-1.084.092zm11.856-6.1v5.996h-1.037v-4.566c-.231.292-.485.634-.761 1.026-.277.392-.554.8-.83 1.222a47.394 47.394 0 00-1.453 2.318h-.957v-5.995h1.038v4.312c.2-.33.426-.692.68-1.084a31.306 31.306 0 011.602-2.295c.277-.36.535-.672.773-.933h.945zm6.753 5.996h-1.072v-2.652h-2.768v2.652h-1.072v-5.995h1.072v2.444h2.767v-2.444h1.073v5.995zm6.075-5.995v.899h-1.948v5.096h-1.073v-5.096h-1.948v-.9h4.969zm.771 3.009c0-.53.077-.992.23-1.384.154-.4.358-.73.612-.991a2.47 2.47 0 01.876-.588 2.73 2.73 0 011.015-.196c.807 0 1.425.253 1.856.76.43.5.646 1.265.646 2.295v.184c0 .07-.004.135-.012.196H73c.046.623.226 1.096.541 1.419.316.322.808.484 1.476.484.377 0 .692-.03.946-.092.261-.07.457-.135.588-.196l.15.899c-.131.069-.362.142-.692.219a4.798 4.798 0 01-1.107.115c-.523 0-.976-.077-1.36-.23a2.593 2.593 0 01-.934-.658 2.73 2.73 0 01-.554-.98 4.36 4.36 0 01-.173-1.256zm4.116-.588c.008-.485-.115-.88-.369-1.188-.246-.315-.588-.472-1.026-.472-.246 0-.465.05-.657.15a1.483 1.483 0 00-.473.368c-.13.154-.234.33-.311.53-.07.2-.115.404-.138.612h2.974zm6.82.588c0-.7-.172-1.238-.518-1.614-.346-.377-.807-.565-1.383-.565-.323 0-.577.011-.761.034-.177.023-.32.05-.427.081v3.782c.13.107.319.211.565.31.246.1.515.15.807.15.308 0 .569-.053.784-.16a1.51 1.51 0 00.542-.462c.138-.2.238-.43.3-.692a3.9 3.9 0 00.092-.864zm1.12 0a4.1 4.1 0 01-.185 1.256 2.771 2.771 0 01-.519.992c-.23.277-.515.492-.853.646-.33.153-.711.23-1.142.23-.346 0-.653-.046-.922-.138a2.92 2.92 0 01-.588-.265v2.398h-1.072v-7.944c.253-.062.569-.127.945-.196a6.817 6.817 0 011.326-.115c.461 0 .876.073 1.245.219.37.146.684.353.946.622.261.27.46.6.6.992.145.384.218.819.218 1.303zm6.42 2.986h-1.073v-2.652h-2.767v2.652h-1.072v-5.995h1.072v2.444h2.767v-2.444h1.073v5.995zm1.51-2.986c0-.53.076-.992.23-1.384.154-.4.357-.73.61-.991.255-.262.547-.458.877-.588a2.73 2.73 0 011.015-.196c.807 0 1.425.253 1.856.76.43.5.646 1.265.646 2.295v.184c0 .07-.004.135-.012.196h-4.104c.046.623.226 1.096.541 1.419.316.322.808.484 1.476.484.377 0 .692-.03.946-.092.261-.07.457-.135.588-.196l.15.899c-.131.069-.362.142-.692.219a4.798 4.798 0 01-1.107.115c-.523 0-.976-.077-1.36-.23a2.594 2.594 0 01-.934-.658 2.732 2.732 0 01-.554-.98 4.357 4.357 0 01-.173-1.256zm4.115-.588c.008-.485-.115-.88-.369-1.188-.246-.315-.588-.472-1.026-.472-.246 0-.465.05-.657.15a1.485 1.485 0 00-.473.368c-.13.154-.234.33-.311.53-.07.2-.115.404-.138.612h2.974zm6.89-2.421v.899h-1.948v5.096h-1.073v-5.096h-1.948v-.9h4.969zm.134 2.04h2.848v1.003h-2.848v-1.003zm8.23.969c0-.7-.173-1.238-.519-1.614-.346-.377-.807-.565-1.383-.565-.323 0-.577.011-.761.034-.177.023-.319.05-.427.081v3.782c.131.107.319.211.565.31.246.1.515.15.807.15.308 0 .569-.053.784-.16.223-.116.404-.27.542-.462.138-.2.238-.43.3-.692a3.9 3.9 0 00.092-.864zm1.118 0a4.1 4.1 0 01-.184 1.256 2.76 2.76 0 01-.519.992c-.23.277-.515.492-.853.646-.33.153-.711.23-1.141.23-.346 0-.654-.046-.923-.138a2.942 2.942 0 01-.588-.265v2.398h-1.072v-7.944c.254-.062.569-.127.945-.196a6.827 6.827 0 011.326-.115c.461 0 .877.073 1.245.219.369.146.685.353.946.622.261.27.461.6.599.992.146.384.219.819.219 1.303zm1.175 0c0-.53.077-.992.231-1.384.153-.4.357-.73.611-.991a2.47 2.47 0 01.876-.588c.33-.131.669-.196 1.014-.196.807 0 1.426.253 1.857.76.43.5.645 1.265.645 2.295v.184c0 .07-.004.135-.011.196h-4.105c.046.623.227 1.096.542 1.419.315.322.807.484 1.476.484.377 0 .692-.03.945-.092a3.77 3.77 0 00.588-.196l.15.899c-.13.069-.361.142-.692.219a4.786 4.786 0 01-1.106.115c-.523 0-.976-.077-1.361-.23a2.6 2.6 0 01-.934-.658 2.73 2.73 0 01-.553-.98 4.367 4.367 0 01-.173-1.256zm4.116-.588c.008-.485-.115-.88-.369-1.188-.246-.315-.588-.472-1.026-.472-.246 0-.465.05-.657.15a1.483 1.483 0 00-.473.368c-.131.154-.234.33-.311.53a2.82 2.82 0 00-.139.612h2.975zm4.849.311c.238.17.496.384.773.646.276.253.545.53.807.83.269.3.519.607.749.922.231.308.427.596.588.865h-1.268a7.378 7.378 0 00-.6-.796 11.554 11.554 0 00-.703-.795 10.736 10.736 0 00-.749-.703 7.366 7.366 0 00-.715-.542v2.836h-1.072v-5.995h1.072v2.57l.634-.61.715-.715c.246-.246.472-.477.68-.692.208-.223.377-.407.507-.553h1.245c-.169.184-.368.395-.599.634-.223.23-.457.468-.703.714l-.715.738-.646.646zm6.337-1.833c0 .253-.008.526-.023.818a10.911 10.911 0 01-.185 1.718 5.949 5.949 0 01-.207.784 3.621 3.621 0 01-.323.692 2.39 2.39 0 01-.461.577c-.185.161-.4.3-.646.415a2.8 2.8 0 01-.865.207l-.15-.9c.377-.076.673-.218.888-.426.223-.207.4-.46.53-.76.116-.262.2-.558.254-.888.054-.33.092-.673.115-1.027.023-.36.035-.722.035-1.083.008-.362.012-.704.012-1.026h3.989v5.995h-1.073v-5.096h-1.89zm6.833 4.323c.253 0 .476-.003.668-.011.2-.016.365-.039.496-.07v-1.786a1.296 1.296 0 00-.38-.093 3.552 3.552 0 00-.623-.046c-.161 0-.334.012-.519.035a1.55 1.55 0 00-.496.15.985.985 0 00-.368.3c-.1.122-.15.288-.15.495 0 .385.123.654.369.807.246.146.58.22 1.003.22zm-.093-5.372c.431 0 .792.057 1.084.173.3.107.538.265.715.472.184.2.315.442.392.727.077.276.115.584.115.922v3.747a29.03 29.03 0 00-.392.07c-.161.022-.346.045-.553.068a14.24 14.24 0 01-.68.058 7.423 7.423 0 01-.715.035c-.338 0-.65-.035-.934-.104a2.161 2.161 0 01-.738-.323 1.552 1.552 0 01-.484-.6 2.083 2.083 0 01-.173-.887c0-.33.065-.615.196-.853.138-.239.323-.43.553-.577.231-.146.5-.254.807-.323.308-.069.631-.103.969-.103.107 0 .219.007.334.023.115.007.223.023.323.046a5.121 5.121 0 01.438.08v-.3a2.3 2.3 0 00-.058-.518 1.143 1.143 0 00-.207-.461.978.978 0 00-.415-.323c-.169-.085-.392-.127-.669-.127-.353 0-.665.027-.934.08a3.044 3.044 0 00-.588.15l-.127-.887c.139-.062.369-.12.692-.173a5.615 5.615 0 011.049-.092zm5.229 1.73c-.077.76-.135 1.521-.173 2.282-.039.753-.07 1.464-.093 2.133h-1.026c.016-.469.039-.957.069-1.464.031-.515.066-1.03.104-1.545a88.99 88.99 0 01.127-1.534c.046-.507.096-.991.15-1.452h.98c.246.4.534.949.865 1.648.33.692.711 1.491 1.141 2.398.43-.907.811-1.706 1.141-2.398.331-.7.619-1.249.865-1.648h.992c.053.46.103.945.15 1.452a100.125 100.125 0 01.23 3.078c.031.508.054.996.069 1.465h-1.06c-.023-.669-.054-1.38-.093-2.133a44.931 44.931 0 00-.173-2.283c-.123.238-.265.527-.426.865-.162.33-.323.669-.484 1.014l-.439.992c-.138.315-.245.565-.322.75h-.9a35.639 35.639 0 00-.346-.762 47.62 47.62 0 00-.449-.991 25.194 25.194 0 00-.473-1.026 16.18 16.18 0 00-.426-.842zm6.957 1.429c0-.53.077-.992.23-1.384.154-.4.358-.73.612-.991a2.47 2.47 0 01.876-.588c.33-.131.668-.196 1.014-.196.807 0 1.426.253 1.857.76.43.5.645 1.265.645 2.295v.184c0 .07-.004.135-.011.196h-4.105c.046.623.227 1.096.542 1.419.315.322.807.484 1.476.484.377 0 .692-.03.945-.092a3.77 3.77 0 00.588-.196l.15.899c-.13.069-.361.142-.692.219a4.786 4.786 0 01-1.106.115c-.523 0-.977-.077-1.361-.23a2.6 2.6 0 01-.934-.658 2.73 2.73 0 01-.553-.98 4.367 4.367 0 01-.173-1.256zm4.116-.588c.008-.485-.115-.88-.369-1.188-.246-.315-.588-.472-1.026-.472-.246 0-.465.05-.657.15a1.483 1.483 0 00-.473.368c-.131.154-.234.33-.311.53-.07.2-.116.404-.139.612h2.975z" fill="#C4C4C4"/><path d="M29.268 22.94c-1.877 0-3.697-.232-5.46-.696-1.742-.486-3.144-1.11-4.206-1.87l1.865-3.866c1.018.698 2.227 1.257 3.63 1.68a14.51 14.51 0 004.205.634c1.56 0 2.714-.212 3.46-.634.746-.444 1.12-1.025 1.12-1.743 0-.528-.227-.961-.68-1.3-.429-.358-.994-.643-1.695-.855-.679-.21-1.606-.443-2.781-.697-1.81-.401-3.29-.802-4.444-1.204a7.377 7.377 0 01-2.985-1.933c-.814-.887-1.22-2.07-1.22-3.548 0-1.289.372-2.45 1.119-3.486.746-1.056 1.865-1.89 3.358-2.503C26.069.306 27.912 0 30.082 0c1.515 0 2.996.169 4.444.507 1.447.338 2.713.824 3.798 1.458L36.63 5.862c-2.194-1.162-4.387-1.743-6.58-1.743-1.538 0-2.68.233-3.426.697-.724.465-1.086 1.078-1.086 1.838s.419 1.33 1.255 1.711c.86.36 2.16.718 3.9 1.077 1.81.402 3.29.803 4.444 1.204a7.258 7.258 0 012.951 1.902c.837.866 1.255 2.038 1.255 3.517 0 1.267-.384 2.43-1.153 3.485-.746 1.035-1.877 1.86-3.392 2.472-1.515.612-3.358.919-5.529.919zm32.212-4.499v4.12H43.097V.38h17.942v4.118H48.557v4.817h11.024v3.992H48.557v5.133H61.48zm15.804 4.499c-2.464 0-4.692-.496-6.681-1.489-1.968-.992-3.517-2.355-4.647-4.087-1.108-1.753-1.662-3.718-1.662-5.894 0-2.175.554-4.13 1.662-5.862 1.13-1.753 2.68-3.126 4.647-4.119C72.593.496 74.82 0 77.284 0c2.465 0 4.681.496 6.648 1.49 1.968.992 3.517 2.365 4.647 4.118 1.13 1.733 1.696 3.687 1.696 5.862 0 2.176-.565 4.14-1.696 5.894-1.13 1.732-2.68 3.095-4.647 4.087-1.967.993-4.183 1.49-6.648 1.49zm0-4.372c1.402 0 2.669-.296 3.8-.887a6.71 6.71 0 002.645-2.535c.656-1.077.984-2.303.984-3.676 0-1.373-.328-2.598-.984-3.675a6.494 6.494 0 00-2.646-2.503c-1.13-.613-2.397-.92-3.799-.92-1.402 0-2.668.307-3.798.92a6.727 6.727 0 00-2.68 2.503c-.633 1.077-.95 2.302-.95 3.675 0 1.373.317 2.599.95 3.676a6.955 6.955 0 002.68 2.535c1.13.591 2.396.887 3.798.887zm18.839-7.659h3.337V21.66h-3.337V10.91zM97.79 9.41c-.613 0-1.112-.166-1.497-.5-.385-.332-.578-.745-.578-1.238s.193-.906.578-1.24c.385-.332.884-.499 1.497-.499.614 0 1.113.16 1.498.48.385.32.577.72.577 1.199 0 .52-.192.952-.577 1.299-.385.333-.884.5-1.498.5zm11.762 1.34c1.426 0 2.574.399 3.444 1.198.884.8 1.326 1.985 1.326 3.557v6.155h-3.337v-5.675c0-.853-.199-1.486-.599-1.899-.399-.426-.976-.64-1.732-.64-.842 0-1.512.247-2.011.74-.499.48-.749 1.2-.749 2.159v5.315h-3.337V10.91h3.187v1.259c.442-.453.992-.8 1.648-1.04a5.953 5.953 0 012.16-.379zm13.483 11.07c-1.227 0-2.332-.233-3.316-.7-.97-.479-1.733-1.138-2.289-1.978-.542-.839-.813-1.791-.813-2.857 0-1.066.271-2.019.813-2.858.556-.84 1.319-1.492 2.289-1.958.984-.48 2.089-.72 3.316-.72 1.212 0 2.267.24 3.166.72.912.466 1.575 1.139 1.989 2.018l-2.588 1.299c-.599-.986-1.462-1.479-2.589-1.479-.87 0-1.59.266-2.16.8-.571.532-.856 1.258-.856 2.178 0 .919.285 1.645.856 2.178.57.533 1.29.8 2.16.8 1.141 0 2.004-.494 2.589-1.48l2.588 1.32c-.414.852-1.077 1.518-1.989 1.998-.899.48-1.954.72-3.166.72zm8.756 0c-.584 0-1.076-.186-1.476-.56a1.836 1.836 0 01-.599-1.398c0-.573.2-1.033.599-1.38.4-.359.892-.539 1.476-.539.585 0 1.077.18 1.476.54.4.346.599.806.599 1.379 0 .56-.199 1.026-.599 1.399-.399.373-.891.56-1.476.56z" fill="#fff"/><path fill-rule="evenodd" clip-rule="evenodd" d="M82.827 11.758H71.842v-.72h10.985v.72z" fill="#fff"/><path fill-rule="evenodd" clip-rule="evenodd" d="M77.045 16.62V6.356h.771V16.62h-.77z" fill="#fff"/><path d="M79.72 11.47c0 1.267-1.107 2.294-2.471 2.294-1.365 0-2.471-1.027-2.471-2.294 0-1.267 1.106-2.294 2.47-2.294 1.365 0 2.471 1.027 2.471 2.294z" fill="#fff"/></svg>