<svg width="186" height="94" viewBox="0 0 186 94" fill="none" xmlns="http://www.w3.org/2000/svg">
<g clip-path="url(#clip0_601_4087)">
<path fill-rule="evenodd" clip-rule="evenodd" d="M75.9249 35.9741V38.4909H81.6731V35.9741H75.9249ZM86.9025 36.9928V35.9741H82.252V36.9928H86.9025ZM86.9025 38.4709V37.7718H82.252V38.4709H86.9025ZM97.9599 37.7918V38.4909H102.85V37.7918H97.9599ZM97.9599 35.9741V36.9928H102.85V35.9741H97.9599ZM97.3611 36.9928V35.9741H87.4813V36.9928H97.3611ZM97.3611 38.4709V37.7718H87.4813V38.4709H97.3611ZM109.396 38.4709V35.9541H103.449V38.4709H109.396ZM58.3408 32.4985V35.0952H62.8716V32.4985H58.3408ZM52.9917 32.4985V35.0952H57.742V32.4985H52.9917ZM43.1918 41.2274H51.6944V40.4883H43.1918V41.2274ZM43.1918 42.5856H51.6944V41.6269H43.1918V42.5856ZM43.1918 43.9439H51.6944V42.9851H43.1918V43.9439ZM38.5213 32.4985V35.0952H42.6129V32.4985H38.5213ZM33.6313 32.4985V35.0952H37.9225V32.4985H33.6313ZM13.9315 8.36932H8.52259V11.1058H13.9515V8.36932H13.9315ZM20.7576 17.0183V18.2567H21.3763L20.7576 17.0183ZM20.1788 11.7051H14.5303V14.1819H20.1788V11.7051ZM20.1788 8.36932H14.5303V11.1058H20.1788V8.36932ZM26.4061 11.7051H20.7576V14.1819H26.4061V11.7051ZM26.4061 8.36932H20.7576V11.1058H26.4061V8.36932ZM33.5315 11.7051H27.0048V14.1819H33.5315V11.7051ZM33.5315 8.36932H27.0048V11.1058H33.5315V8.36932ZM40.1979 15.3804H34.1103V18.2567H40.1979V15.3804ZM40.1979 11.7051H34.1103V14.1819H40.1979V11.7051ZM40.1979 8.36932H34.1103V11.1058H40.1979V8.36932ZM47.3233 11.7051H40.7967V14.1819H47.3233V11.7051V11.7051ZM47.3233 8.36932H40.7967V11.1058H47.3233V8.36932V8.36932ZM54.2292 11.7051H47.9221V14.1819H54.2292V11.7051ZM54.2292 8.36932H47.9221V11.1058H54.2292V8.36932ZM61.1351 11.7051H54.828V14.1819H61.1351V11.7051ZM61.1351 8.36932H54.828V11.1058H61.1351V8.36932ZM86.2837 9.90735H80.8548V11.1258H86.2837V9.90735ZM86.2837 8.36932H80.8548V9.30812H86.2837V8.36932ZM104.546 9.90735H98.898V11.1258H104.546V9.90735ZM104.546 8.36932H98.898V9.30812H104.546V8.36932ZM130.354 11.7051H124.047V14.1819H130.354V11.7051ZM130.354 8.36932H124.047V11.1058H130.354V8.36932ZM137.419 11.7051H130.952V14.1819H137.419V11.7051ZM137.419 8.36932H130.952V11.1058H137.419V8.36932ZM144.325 11.7051H138.018V14.1819H144.325V11.7051ZM144.325 8.36932H138.018V11.1058H144.325V8.36932ZM151.231 18.2567V15.3804H144.924V18.2567H151.231ZM151.231 11.7051H144.924V14.1819H151.231V11.7051ZM151.231 8.36932H144.924V11.1058H151.231V8.36932ZM158.137 11.7051H151.83V14.1819H158.137V11.7051ZM158.137 8.36932H151.83V11.1058H158.137V8.36932ZM164.584 16.8984L163.865 18.2567H164.584V16.8984ZM164.584 11.7051H158.716V14.1819H164.584V11.7051ZM164.584 8.36932H158.716V11.1058H164.584V8.36932ZM171.27 11.7051H165.183V14.1819H171.27V11.7051ZM171.27 8.36932H165.183V11.1058H171.27V8.36932ZM177.497 8.36932H171.849V11.1058H177.497V8.36932ZM10.6383 14.1819L8.52259 12.0646V14.1819H10.6383ZM14.7299 18.2567L14.5303 18.0569V18.2567H14.7299ZM19.0611 19.4552L23.8712 23.2104L21.9951 19.4552H19.0611ZM14.5303 15.9197L17.5242 18.2767H20.1588V15.8398L19.9393 15.3804H14.5303V15.9197ZM13.8517 15.3804L13.9315 15.4403V15.3804H13.8517ZM9.16128 11.7051L12.3348 14.1819H13.9515V11.7051H9.16128ZM13.9315 16.1993L12.8937 15.3804H12.6741L13.9315 16.6388V16.1993ZM16.5662 18.2567L14.5303 16.6587V17.218L15.5682 18.2567H16.5662ZM24.49 24.4488L18.103 19.4552H16.7657L27.2044 29.8619L24.49 24.4488ZM25.2684 18.2567L21.4961 15.8797L22.6936 18.2567H25.2684ZM27.1645 19.4552H23.2924L25.7075 24.269L34.8288 24.289L27.1645 19.4552ZM26.9849 16.9384L30.5177 18.2567H33.5115V15.3804H26.9849V16.9384ZM22.7934 15.3804L26.4061 16.7187V15.3804H22.7934ZM26.4061 17.3578L22.9132 16.0595L26.3861 18.2567H26.4061V17.3578ZM28.8211 18.2567L26.9849 17.5776V18.2567H28.8211ZM163.646 16.1394L160.213 18.2567H162.548L163.646 16.1394ZM150.293 24.3489H159.354L161.909 19.4552H158.257L150.293 24.3489ZM158.137 17.7973L156.86 18.2767H158.137V17.7973ZM162.388 16.2193L158.716 17.5776V18.2567H159.075L162.388 16.2193ZM158.716 16.9384L162.927 15.3804H158.716V16.9384ZM155.123 18.2567L158.117 17.1581V15.3804H151.81V18.2567H155.123ZM171.27 18.1368L171.15 18.2567H171.27V18.1368ZM174.204 15.3804L171.849 17.5975V18.2567H177.497V15.3804H174.204ZM177.497 12.3043L175.481 14.1819H177.497V12.3043V12.3043ZM167.737 19.4552L160.472 24.7884L157.778 29.9618L168.995 19.4552H167.737ZM171.27 16.8585L169.374 18.2567H170.272L171.27 17.3379V16.8585ZM173.286 15.3804L171.849 16.439V16.7786L173.346 15.3804H173.286ZM173.905 14.1819L177.158 11.785L177.238 11.7051H171.849V14.1819H173.905ZM171.849 15.7L172.288 15.3804H171.849V15.7ZM168.376 18.2567L171.27 16.1394V15.3804H165.382L165.183 15.7599V18.2567H168.376ZM161.091 23.5899L166.739 19.4552H163.246L161.091 23.5899ZM28.9409 35.0752H33.0325V32.4785H28.9409V35.0752ZM48.1616 32.4985V35.0952H52.4129V32.4985H48.1616ZM46.9641 35.0752V32.4785H43.1918V35.0752H46.9641ZM46.9641 25.5074L37.8427 25.4875L46.9641 31.2601V25.5074ZM138.258 31.0603L147.219 25.5474H138.258V31.0603ZM82.2919 52.5729C84.7868 52.1135 87.0023 50.8751 88.7187 49.1373C90.555 47.2796 91.7925 43.4845 92.1517 40.3085V39.0701H82.252L82.2919 52.5729ZM100.056 52.5729C98.6185 52.0935 97.401 51.2546 96.0039 49.8164C94.2275 47.9987 93.01 45.3022 92.531 42.6655C92.0519 45.2822 90.9143 47.8589 89.1179 49.6766C87.8206 50.9949 86.2638 51.9936 84.4674 52.5729H100.056V52.5729ZM93.0299 39.0701V41.2873C93.5289 44.2235 94.7265 47.4594 96.3631 49.1373C98.0996 50.895 100.255 52.1135 102.75 52.5729H102.85V39.0701H93.0299ZM117.54 11.7051V14.1819H123.468V11.7051H117.54ZM117.54 8.36932V11.1058H123.468V8.36932H117.54ZM116.362 9.30812V8.36932H111.153V9.30812H116.362ZM116.362 11.1258V9.90735H111.153V11.1258H116.362ZM116.362 14.1819V11.7051H111.153V14.1819H116.362ZM69.0789 11.7051V14.1819H74.0487V11.7051H69.0789ZM69.0789 9.90735V11.1258H74.0487V9.90735H69.0789ZM69.0789 8.36932V9.30812H74.0487V8.36932H69.0789ZM67.9013 11.1258V8.36932H61.7139V11.1058H67.9013V11.1258ZM67.9013 14.1819V11.7051H61.7139V14.1819H67.9013ZM126.981 32.4985H122.45V35.0952H126.981V32.4985ZM132.31 32.4985H127.559V35.0952H132.31V32.4985ZM137.08 32.4985H132.889V35.0952H137.08V32.4985ZM142.11 32.4985H138.258V35.0952H142.11V32.4985ZM146.78 32.4985H142.708V35.0952H146.8V32.4985H146.78ZM151.231 32.4985H147.359V35.0952H151.231V32.4985ZM155.921 32.4985H151.83V35.0952H155.921V32.4985ZM33.0325 38.5308V35.6745H28.9409V38.5308H33.0325ZM37.9225 38.5308V35.6745H33.6113V38.5308H37.9225ZM42.6129 38.5308V35.6745H38.5213V38.5308H42.6129ZM46.9641 38.5308V35.6745H43.1918V38.5308H46.9641ZM52.393 38.5308V35.6745H48.1416V38.5308H52.393ZM57.742 38.5308V35.6745H52.9917V38.5308H57.742ZM62.8716 38.5308V35.6745H58.3408V38.5308H62.8716ZM126.981 38.5308V35.6745H122.45V38.5308H126.981ZM132.31 38.5308V35.6745H127.559V38.5308H132.31ZM137.08 38.5308V35.6745H132.889V38.5308H137.08ZM142.11 38.5308V35.6745H138.258V38.5308H142.11ZM146.78 38.5308V35.6745H142.708V38.5308H146.78ZM151.231 38.5308V35.6745H147.359V38.5308H151.231ZM155.921 38.5308V35.6745H151.83V38.5308H155.921ZM183.405 16.7586L178.615 15.2805L178.635 18.3566L183.405 16.7586ZM180.431 18.5963L178.096 19.3753V19.4352H177.897H177.877H169.853L157.578 30.9605L180.431 18.5963ZM178.336 14.3617L183.006 15.7998L178.096 8.42924V14.2818L178.336 14.3617ZM7.92381 14.2818V8.56906L2.67454 15.9197L7.92381 14.2818ZM8.14336 18.2567H13.9315V17.4777L11.8358 15.3804H8.16332L8.14336 18.2567ZM5.86801 18.6961L27.404 30.9205L15.9275 19.4552H8.14336H8.08349V19.4352L5.86801 18.6961ZM43.9303 44.3434L47.5229 45.6018L50.8761 44.3434H43.9303ZM133.308 43.2448V44.2036H142.01V43.2448H133.308ZM133.308 41.8865V42.8453H142.03V41.8865H133.308ZM133.288 40.768V41.507H142.01V40.768H133.288ZM142.03 39.7692H133.288V40.3685H142.03V39.7692ZM134.246 44.6031L137.838 45.8615L141.192 44.6031H134.246ZM28.3621 32.6783L26.1266 35.275L28.3621 38.2312V32.6783ZM36.1861 25.4875L29.7193 31.3H45.9262L36.725 25.4875H36.1861ZM39.7189 22.3115L37.5034 24.309L45.1278 24.3289L39.7189 22.3115ZM42.8924 19.4552L40.2178 21.8521L46.8643 24.309H46.984V19.4552H42.8924ZM46.9641 15.7799L44.2097 18.2567H46.9641V15.7799ZM50.1974 18.2567L48.1616 16.0395V18.2567H50.1974ZM62.1331 31.3L59.3188 28.224L55.5665 31.3H62.1331ZM65.606 35.0752L63.4504 32.7182V35.0752H65.606ZM67.9013 37.592L66.1449 35.6745H63.4504V38.5308H67.9013V37.592ZM52.7323 39.7293L81.4336 52.3731L69.0589 38.8704V39.7293H67.8813H52.7323ZM51.7143 39.7692L51.6345 39.7293H43.1918V40.0888H51.6944V39.7692H51.7143ZM66.7436 35.6745L67.9013 36.9329V35.6745H66.7436ZM63.8296 32.4985L66.2047 35.0952H67.9013V32.4985H63.8296ZM59.6581 27.9443L62.7318 31.3H67.9013V25.1279H63.1111L59.6581 27.9443ZM43.4712 18.2567C44.5689 17.2979 45.6467 16.3391 46.7445 15.3804H40.7967V18.2567H43.4712ZM39.5991 21.6324C40.4374 20.9133 41.2557 20.1942 42.094 19.4552H33.751L39.5991 21.6324ZM36.5653 24.289C37.4036 23.5499 38.2419 22.8109 39.0802 22.0518L32.0346 19.4352H28.2623L35.9266 24.269L36.5653 24.289ZM29.2203 31.2601C31.1563 29.2626 33.1922 27.3651 35.248 25.4875L26.3262 25.4675L29.2203 31.2601ZM150.073 25.5474C152.049 27.3651 153.985 29.2227 155.802 31.2002L158.756 25.5474H150.073V25.5474ZM146.261 22.1517C147.099 22.8708 147.918 23.6099 148.756 24.3489H149.175L157.139 19.4552H153.626L146.261 22.1517ZM143.128 19.4552C144.006 20.2142 144.884 20.9533 145.742 21.7123L151.89 19.4552H143.128ZM138.457 15.3804C139.535 16.3391 140.633 17.2979 141.73 18.2567H144.325V15.3804H138.457ZM122.53 31.3L125.484 28.0842L121.791 25.1279H117.54V31.3H122.53ZM119.057 35.0752L121.432 32.4785H117.54V35.0752H119.057ZM117.54 36.7331L118.518 35.6745H117.54V36.7331ZM116.362 38.7106L103.948 52.2533L130.813 39.7293H116.522V39.7093H116.362V38.7106ZM119.137 35.6745L117.54 37.4322V38.5308H121.851V35.6745H119.137ZM121.851 32.7182L119.695 35.0752H121.851V32.7182ZM125.843 28.3838L123.148 31.3H129.456L125.843 28.3838ZM137.08 16.0994L135.124 18.2567H137.1V16.0994H137.08ZM140.952 18.2567L138.258 15.8198V18.2567H140.952ZM145.064 21.972L142.289 19.4552H138.277V24.3489H138.597L145.064 21.972ZM147.678 24.3489L145.543 22.4114L140.293 24.3489H147.678ZM155.363 31.3L149.016 25.5474H148.357L138.996 31.3H155.363ZM156.5 38.1313L158.616 35.1751L156.5 32.4586V38.1313ZM61.1351 17.997L58.0215 15.3804H57.9815L54.8479 18.2567H61.1151V17.997H61.1351ZM63.5502 19.4552L67.9013 23.1105V19.4552H63.5502ZM58.72 15.3804L61.1351 17.4178V15.3804H58.72ZM54.828 17.6774L57.3229 15.3804H54.808V17.6774H54.828ZM54.1893 18.2567L54.2292 18.2167V15.3804H48.1616L50.7962 18.2567H54.1893ZM52.353 19.9545L52.8919 19.4552H51.894L52.353 19.9545ZM48.1616 23.7896L52.0337 20.2541L51.2952 19.4552H48.1616V23.7896ZM133.228 20.334L137.1 24.0293V19.4552H134.026L133.228 20.334ZM132.31 19.4552L132.889 20.0144L133.407 19.4552H132.31ZM130.952 18.1568L131.052 18.2567H134.505L137.08 15.4403V15.3804H130.952V18.1568V18.1568ZM128.038 15.3804L130.354 17.5975V15.3804H128.038ZM124.047 17.5975L126.661 15.4003H124.047V17.5975ZM117.54 23.0705L121.831 19.4552H117.54V23.0705ZM130.354 18.2167L127.38 15.3804H127.36L124.047 18.1768V18.2567H130.354V18.2167ZM56.3648 24.9881L48.5009 31.3H54.349L58.7999 27.6447L56.3648 24.9881ZM63.0711 19.6349L56.7241 24.7284L59.1392 27.385L62.8117 24.3889V24.3489H67.9212V23.7297L63.0711 19.6349ZM67.9013 15.7599L64.7876 18.2567H67.9013V15.7599ZM64.0491 18.2567L67.6418 15.3804H61.7139V17.9171L62.1331 18.2567H64.0491ZM56.4048 24.3889L62.5722 19.4552H53.5506L52.6524 20.2941L56.4048 24.3889ZM48.1616 31.0004L56.0655 24.6685L52.3131 20.5737L48.1416 24.3889V31.0004H48.1616ZM129.236 24.6685L137.1 30.9605V24.6286L132.928 20.6536L129.236 24.6685ZM122.709 19.4552L128.877 24.3889L132.589 20.354L131.651 19.4552H122.709ZM117.62 15.3804L121.212 18.2567H123.268L123.468 18.0769V15.3804H117.62ZM120.494 18.2567L117.54 15.8997V18.2567H120.494ZM128.577 24.7284L122.27 19.6949L117.54 23.6698V24.3289H122.091V24.3489L126.023 27.5049L128.577 24.7284ZM136.801 31.3L128.937 25.0081L126.382 27.7845L130.733 31.2801H136.801V31.3ZM93.9081 9.30812L92.9701 8.36932H92.8902V9.30812H93.9081ZM112.869 27.5848L116.362 31.0603V25.1279H115.803L112.869 27.5848ZM110.414 25.1279L112.57 27.2652L115.105 25.1279H110.414ZM96.9619 11.7051L98.3191 13.0434V11.7051H96.9619V11.7051ZM93.6088 8.36932L94.5468 9.30812H98.3191V8.36932H93.6088ZM90.575 9.30812L91.4931 8.36932H86.8625V9.30812H90.575ZM86.8825 13.0234L88.1998 11.7051H86.8825V13.0234ZM72.7713 27.2053L74.8471 25.1279H70.2964L72.7713 27.2053ZM69.0789 30.9006L72.452 27.5249L69.5978 25.1279H69.0789V30.9006V30.9006ZM102.231 28.3838L106.802 25.1279H101.513L102.231 28.3838ZM96.7424 32.2988L101.193 29.1228L100.295 25.1279H93.3293L93.1896 25.3876L96.7424 32.2988ZM93.1896 34.8555L95.7843 32.9979L93.1896 27.9044V34.8555ZM89.2976 33.0578L92.012 34.9754V27.7446L89.2976 33.0578ZM83.8886 29.1827L88.3395 32.3587L91.9122 25.3876L91.7725 25.1279H84.8067L83.8886 29.1827ZM78.1803 25.1279L82.8507 28.4437L83.5892 25.1279H78.1803V25.1279ZM74.2084 35.1751L69.0789 32.4985V35.0952H70.1766V35.1951H74.2084V35.1751ZM79.5974 33.5372L76.863 35.1751H81.3338L81.3738 35.0353L79.5974 33.5372ZM81.6532 32.2988L79.9966 33.2975L81.4736 34.5359L81.6532 33.717V32.2988ZM69.0789 31.9992L75.1864 35.1951H75.9848L79.2182 33.2575L72.7713 27.8445L69.0589 31.5797V31.9992H69.0789ZM106.103 33.2775L109.436 35.1751H109.636L116.342 31.9193V31.6796L112.51 27.8644L106.103 33.2775ZM105.305 33.3574L103.429 32.2988V33.7569L103.648 34.7357L105.305 33.3574ZM108.518 35.1751L105.724 33.5971L103.828 35.1751H108.518ZM116.362 32.4186L110.674 35.1751H116.362V32.4186ZM75.3261 38.9303L69.1387 35.9741H69.0789V38.2312C73.2903 42.8253 77.5017 47.4195 81.7131 52.0136L81.6731 39.0901H75.9249H75.3461V38.9303H75.3261ZM70.1766 35.9741L75.3261 38.4509V35.9741H70.1766ZM109.975 38.5308L115.165 35.9741H109.975V38.5308ZM116.203 35.9741L109.975 39.0302V39.0701H109.377H103.429V52.1334C107.72 47.4195 112.031 42.7255 116.342 38.0314V35.9741H116.203ZM107.161 9.30812C106.981 8.98853 106.782 8.68891 106.582 8.36932H105.125V9.30812H107.161ZM108.079 11.1258C107.9 10.7063 107.72 10.3068 107.5 9.90735H105.125V11.1258H108.079ZM109.057 14.1819C108.878 13.323 108.618 12.504 108.319 11.7051H105.125V14.1819H109.057ZM108.618 23.3302C109.177 21.6324 109.476 19.8147 109.476 17.9371C109.476 17.0582 109.416 16.2193 109.297 15.3804H100.654L108.618 23.3302ZM102.95 31.4798C103.509 31.0404 104.027 30.561 104.526 30.0616C105.924 28.6434 107.081 26.9656 107.92 25.1079H107.58L102.351 28.8432L102.95 31.4798ZM97.7603 34.2762C99.2373 33.7969 100.634 33.0977 101.912 32.2588L101.313 29.6022L96.9619 32.7182L97.7603 34.2762ZM93.6686 35.0553C94.6866 34.9953 95.6646 34.8355 96.6026 34.5958L95.9839 33.3974L93.6686 35.0553ZM88.4992 34.5958C89.4173 34.8156 90.3554 34.9754 91.3134 35.0553L89.078 33.4573L88.4992 34.5958ZM83.21 32.1989C84.4874 33.0578 85.8845 33.7569 87.3615 34.2563L88.12 32.7582L83.7689 29.6621L83.21 32.1989ZM77.2422 25.1279C78.0805 26.9856 79.2381 28.6434 80.6353 30.0816C81.1143 30.561 81.6332 31.0204 82.1522 31.4598L82.711 28.9431L77.3819 25.1479H77.2422V25.1279ZM75.885 15.3804C75.7652 16.2193 75.7053 17.0782 75.7053 17.9371C75.7053 19.8347 76.0047 21.6723 76.5636 23.3702L84.5273 15.3804H75.885ZM76.843 11.7051C76.5436 12.504 76.2841 13.323 76.1045 14.1819H80.276V11.7051H76.843ZM77.6613 9.90735C77.4617 10.3068 77.2622 10.7063 77.0825 11.1258H80.276V9.90735H77.6613ZM78.5795 8.36932C78.3799 8.66893 78.1803 8.98853 78.0006 9.30812H80.276V8.36932H78.5795ZM104.526 5.81258C101.473 2.71653 97.2413 0.79898 92.5908 0.79898C87.9204 0.79898 83.709 2.71653 80.6552 5.81258C80.2361 6.25202 79.8369 6.69146 79.4577 7.17085H105.744C105.345 6.71143 104.946 6.25202 104.526 5.81258ZM77.0825 9.30812C77.2622 8.98853 77.4418 8.68891 77.6214 8.36932H74.6275V9.30812H77.0825ZM76.2442 11.1258C76.4039 10.7063 76.5835 10.3068 76.7831 9.90735H74.6275V11.1258H76.2442ZM75.3061 14.1819C75.4858 13.343 75.7253 12.504 76.0047 11.7051H74.6275V14.1819H75.3061ZM75.5457 22.691C75.1465 21.173 74.9269 19.595 74.9269 17.9371C74.9269 17.0582 74.9868 16.2193 75.1066 15.3804H69.1787L75.5457 22.691ZM75.9448 24.0094L75.845 23.7297L69.0789 15.9596V24.1092L69.3383 24.3289H75.6255L75.9448 24.0094ZM81.4536 31.8793C80.9746 31.4798 80.5155 31.0604 80.0764 30.6209C78.5196 29.0429 77.2622 27.1853 76.364 25.1079H75.4459L73.0907 27.4849L79.6173 32.9779L81.4536 31.8793ZM86.9823 34.9754C85.5652 34.496 84.2479 33.8368 83.0104 33.0378L82.5314 35.1751H86.8825L86.9823 34.9754ZM102.091 33.0778C100.874 33.8768 99.5366 34.5159 98.1195 34.9953L98.2193 35.1751H102.55L102.091 33.0778ZM108.778 25.1279C107.88 27.2053 106.622 29.0629 105.065 30.6409C104.626 31.0803 104.167 31.5198 103.668 31.9193L105.664 33.0578L112.191 27.5648L109.776 25.1279H108.778ZM109.297 23.7497L109.237 23.9494L109.596 24.309H116.043L116.362 24.0493V15.7L109.297 23.7497ZM110.075 15.3804C110.195 16.2193 110.255 17.0782 110.255 17.9371C110.255 19.595 110.035 21.1929 109.616 22.711L116.043 15.3804H110.075ZM109.157 11.7051C109.456 12.504 109.676 13.323 109.856 14.1819H110.534V11.7051H109.157ZM108.379 9.90735C108.578 10.3068 108.758 10.7063 108.917 11.1258H110.534V9.90735H108.379ZM107.54 8.36932C107.72 8.66893 107.92 8.98853 108.079 9.30812H110.554V8.36932H107.54ZM92.5908 0C97.4609 0 101.892 2.01742 105.085 5.25329C105.684 5.85253 106.223 6.49171 106.722 7.17085H177.497V7.15087H178.076V7.39057L183.884 16.0994L185.98 16.7586L183.665 17.5376L156.62 32.1589C157.478 33.1377 158.317 34.1364 159.135 35.1751L156.46 38.9303V39.7692H156.42H142.589L142.609 44.5831L137.818 46.3808L137.739 46.3608L132.849 44.643L132.809 39.7692H131.831L103.389 53.0123V53.1521V53.1921H81.733H81.7131V53.0123L52.3131 40.0489L52.3331 44.3034L47.5429 46.1011L47.463 46.0812L42.573 44.3634L42.5331 39.7692H28.3621V39.0102L25.5478 35.255C26.4659 34.1963 27.404 33.1577 28.3621 32.1589V32.139L28.3421 32.119L2.95397 17.7174L0 16.7386L1.17759 16.3791L1.73645 16.1993L7.92381 7.57034V7.19082H8.06353V7.17085H78.4397C78.9387 6.49171 79.4976 5.85253 80.0764 5.25329C83.2898 2.01742 87.7008 0 92.5908 0ZM91.513 15.4003L91.553 15.3804H91.533L91.513 15.4003ZM90.7147 16.1194C90.8743 15.8997 91.054 15.7199 91.2735 15.5601L91.2336 15.5801L91.1338 15.4003L90.8145 15.3804H90.4752C90.6947 15.5202 90.7945 15.7998 90.7346 16.0595V16.0795L90.7147 16.1194ZM90.3155 17.238C90.3354 16.9184 90.4153 16.6188 90.555 16.3591L90.5151 16.3991L90.3554 16.2992C90.1758 16.459 89.9363 16.4989 89.7367 16.419L89.6369 16.7386H89.6967C89.9762 16.7386 90.2157 16.9184 90.2955 17.1781V17.198L90.3155 17.238ZM90.535 18.3765C90.4153 18.1169 90.3354 17.8372 90.3155 17.5376L90.2955 17.5776H90.0959C90.0361 17.7973 89.8564 17.9571 89.6169 18.017L89.6967 18.2966L89.7566 18.2567C89.9961 18.1169 90.2955 18.1568 90.4951 18.3366V18.3566L90.535 18.3765ZM91.2336 19.1955C91.0141 19.0357 90.8344 18.8559 90.6747 18.6362L90.6947 18.6762L90.535 18.776C90.575 18.9958 90.5151 19.2354 90.3354 19.3952L90.4153 19.4751L90.4552 19.5151L90.4951 19.4552C90.6348 19.2155 90.9143 19.0956 91.1737 19.1555H91.1937L91.2336 19.1955ZM92.3513 19.595C92.032 19.575 91.7525 19.4951 91.4931 19.3553L91.533 19.3952L91.4332 19.575C91.5729 19.7548 91.6328 19.9945 91.553 20.2142L91.8723 20.2941V20.2342C91.8723 19.9545 92.0519 19.7148 92.3114 19.6349H92.3314L92.3513 19.595ZM93.469 19.3753C93.2096 19.4951 92.9301 19.575 92.6308 19.595L92.6707 19.615V19.8147C92.8902 19.8746 93.0499 20.0744 93.0898 20.2941L93.3692 20.2142L93.3293 20.1543C93.1896 19.9146 93.2295 19.615 93.3892 19.4152H93.4092L93.469 19.3753ZM94.2674 18.6562C94.1077 18.8759 93.9281 19.0756 93.7086 19.2155L93.7485 19.1955L93.8483 19.3753C94.0678 19.3153 94.3073 19.3952 94.467 19.575L94.5468 19.4951L94.5868 19.4552L94.5269 19.4152C94.2874 19.2754 94.1876 18.9958 94.2275 18.7161V18.6961L94.2674 18.6562ZM94.6666 17.5376C94.6466 17.8572 94.5668 18.1568 94.4271 18.4165L94.467 18.3765L94.6267 18.4764C94.8063 18.3166 95.0458 18.2767 95.2454 18.3566L95.3253 18.037H95.2654C94.9859 18.037 94.7464 17.8572 94.6666 17.5975V17.5776V17.5376ZM94.447 16.3991C94.5668 16.6587 94.6466 16.9384 94.6666 17.238L94.6866 17.198H94.8861C94.946 16.9783 95.1257 16.8185 95.3652 16.7586L95.2853 16.479L95.2255 16.5189C94.9859 16.6587 94.6866 16.6188 94.487 16.439V16.419L94.447 16.3991ZM93.7485 15.5801C93.968 15.7399 94.1477 15.9197 94.3073 16.1594L94.2874 16.1194L94.467 16.0195C94.4271 15.7998 94.487 15.5601 94.6466 15.4003H94.4271C94.2674 15.5801 94.0279 15.66 93.8083 15.6001H93.7884L93.7485 15.5801ZM93.4092 15.3804L93.489 15.4203L93.4491 15.3804H93.4092ZM99.5366 21.7323L99.4169 21.8921L99.2572 21.7922C99.0576 21.972 98.7582 22.0119 98.5187 21.8521L98.4788 21.8321L96.9419 20.8734L94.946 19.6549L94.8462 19.7748L94.6866 19.9146L95.4849 21.2928L96.7823 23.53L96.8022 23.5499L96.8222 23.5699L96.902 23.7097C97.0018 23.8895 97.0218 24.1092 96.9419 24.289H100.155L99.5366 21.7323ZM98.7183 18.037H98.0796H95.7444C95.7045 18.2167 95.6646 18.3965 95.6047 18.5563L96.9419 19.3952L99.1375 20.7535L99.1574 20.7735L99.1774 20.7935L99.3171 20.8734L99.3371 20.8933L98.7183 18.037ZM99.6364 16.7386H99.876H99.9159H99.9358H100.096C100.375 16.7386 100.614 16.9184 100.694 17.1781V17.198L100.714 17.3978L100.694 17.5975H100.495C100.415 17.8572 100.175 18.037 99.8959 18.037L101.313 24.3289H108.199L108.279 24.2291L108.438 23.8096L99.9957 15.3804H99.3171L99.6364 16.7386ZM97.1216 15.3804L95.6246 16.2792C95.6845 16.439 95.7244 16.5788 95.7444 16.7386H98.4189L98.1195 15.3804H97.1216ZM98.898 12.8636C99.0975 12.8037 99.3171 12.8636 99.4768 13.0034V13.0234L99.5965 13.1832L99.6764 13.3629L99.4967 13.4628C99.5566 13.6825 99.4768 13.9222 99.2971 14.082L99.4169 14.2019H104.526V11.7051H98.878V12.8636H98.898ZM96.5228 11.9048L95.944 12.8836L95.1656 14.1819H96.6426L97.9998 13.3629L96.5228 11.9048ZM95.8242 10.5865L95.9041 10.4467C96.0438 10.207 96.3232 10.0871 96.5827 10.147H96.6026L96.7823 10.2269L96.922 10.3468L96.8222 10.5266C96.9619 10.6864 97.0218 10.9061 96.9619 11.1258H98.2992V9.90735H95.1257L95.8242 10.5865ZM93.1297 11.7051V14.082L93.5289 14.1819H93.6686L94.467 12.8636L95.1456 11.7051H93.1297V11.7051ZM93.1297 9.90735V11.1258H95.5049L95.5847 10.986L94.5069 9.90735H93.1297ZM91.9521 9.30812L92.2914 9.04845V8.38929H92.1318L91.1937 9.32809H91.9521V9.30812ZM89.9562 11.7051L90.2157 12.1645L91.3733 14.1819H91.4532L91.8523 14.082V12.4841V11.7051H89.9562ZM89.5371 10.986L89.6169 11.1058H91.8523V9.88738H90.6149L89.5371 10.986ZM88.1399 11.1258L88.1 11.0459C87.9603 10.8062 88.0002 10.5066 88.1599 10.3068H88.1798L88.3395 10.187L88.5192 10.1071L88.619 10.2869C88.8784 10.2269 89.1578 10.3468 89.2976 10.5865L89.3175 10.6065L89.9961 9.92733H86.8825V11.1458H88.1399V11.1258ZM87.1819 13.3629L88.0601 13.9023L88.5391 14.2019H89.9163L89.5171 13.5028L88.619 11.9448L87.1819 13.3629ZM85.8646 14.0421L85.8247 14.0221L85.8047 14.0021L85.665 13.9222C85.4255 13.7824 85.3257 13.5028 85.3856 13.2231V13.2031L85.4654 13.0234L85.5851 12.8636L85.7448 12.9635C85.9045 12.8236 86.1041 12.7837 86.2837 12.8236V11.7051H80.8548V14.1819H85.7049L85.8646 14.0421ZM86.6629 16.7386H89.2377C89.2776 16.5589 89.3175 16.3791 89.3774 16.2193L88.0401 15.3804H88.0202H86.9623L86.6629 16.7386ZM85.166 18.037H84.8666C84.5872 18.037 84.3477 17.8572 84.2678 17.5975V17.5776L84.2479 17.3778L84.2678 17.1781H84.4674C84.5473 16.9184 84.7868 16.7187 85.0662 16.7187H85.1061H85.4454L85.7448 15.3604H85.146L76.7033 23.8296L76.843 24.1891L76.9428 24.309H83.7489L85.166 18.037ZM85.8047 20.6137L87.3615 19.6949L89.3774 18.4964C89.3175 18.3366 89.2776 18.1968 89.2576 18.017H87.6809H86.3835L85.8047 20.6137ZM88.12 24.3289L88.1599 24.249C87.9803 24.0493 87.9403 23.7297 88.1 23.49L88.12 23.4501L89.0581 21.8921L90.2756 19.8746L90.1558 19.7748L90.0161 19.615L88.6589 20.4139L86.4434 21.7323L86.4234 21.7522L86.4035 21.7722L86.2638 21.8521C86.0442 21.9919 85.7648 21.952 85.5652 21.8122L85.0063 24.3289H88.12V24.3289ZM91.8523 24.3289V23.0506V20.6936C91.6727 20.6536 91.513 20.6137 91.3334 20.5538L90.5151 21.912L89.1778 24.1292L89.1579 24.1492L89.1379 24.1691L89.0581 24.309H91.8523V24.3289ZM93.1297 22.2915V24.3289H95.7644L95.6845 24.2291L95.6646 24.1891L94.7664 22.6111L93.5888 20.5737C93.4291 20.6337 93.2894 20.6736 93.1297 20.6936V22.2915ZM7.38491 15.2805L2.5947 16.7586L7.36495 18.3566L7.38491 15.2805Z" fill="white"/>
<path fill-rule="evenodd" clip-rule="evenodd" d="M153.706 66.4751V82.5346H155.163C155.562 82.5346 155.902 82.3948 156.161 82.1152C156.42 81.8355 156.56 81.496 156.56 81.1165L156.6 67.9732C156.6 67.5538 156.46 67.2142 156.181 66.9346C155.901 66.6549 155.562 66.5151 155.143 66.5151H153.706V66.4751ZM153.706 83.3935V93.6005H150.852V65.6562H155.163C156.341 65.6562 157.359 66.0757 158.217 66.9545C159.055 67.8134 159.494 68.8521 159.494 70.0506V79.0191C159.494 80.2176 159.075 81.2563 158.217 82.1152C157.378 82.9741 156.361 83.4135 155.163 83.4135H153.706V83.3935ZM135.164 91.7229V67.5538C135.164 67.1343 135.024 66.7947 134.745 66.5151C134.465 66.2354 134.126 66.0956 133.707 66.0956C133.308 66.0956 132.968 66.2354 132.669 66.5151C132.39 66.7947 132.25 67.1543 132.25 67.5538V91.7229C132.25 92.1424 132.39 92.4819 132.669 92.7616C132.948 93.0412 133.288 93.1811 133.707 93.1811C134.106 93.1811 134.445 93.0412 134.745 92.7616C135.024 92.4819 135.164 92.1224 135.164 91.7229ZM138.038 69.6311V89.6256C138.038 90.8241 137.619 91.8627 136.761 92.7216C135.922 93.5805 134.904 94.02 133.707 94.02C132.529 94.02 131.511 93.5805 130.653 92.7216C129.795 91.8627 129.376 90.8241 129.376 89.6256V69.6311C129.376 68.4326 129.795 67.394 130.653 66.5351C131.491 65.6762 132.509 65.2367 133.707 65.2367C134.884 65.2367 135.902 65.6562 136.761 66.5351C137.619 67.394 138.038 68.4326 138.038 69.6311ZM118.199 65.6562V66.4751H115.304L115.344 93.6005H112.43V66.4751H109.576V65.6562H118.199ZM92.3713 82.5346H95.7245L94.0678 68.972L92.3713 82.5346ZM97.0817 93.6005L95.8242 83.3935H92.2316L90.9742 93.6005H90.1359L93.6487 65.6562H96.4829L99.9957 93.6005H97.0817ZM78.1603 93.6005H75.2862V71.8882L72.3722 93.6005H69.498V65.6562H72.3722V87.3685L75.2862 65.6562H78.1603V93.6005ZM53.8101 74.425L53.85 67.9533C53.85 67.5338 53.7103 67.1942 53.4309 66.9146C53.1514 66.6349 52.8121 66.4951 52.393 66.4951H50.936V75.8831H52.393C52.7922 75.8831 53.1315 75.7433 53.4109 75.4437C53.6704 75.1441 53.8101 74.8045 53.8101 74.425ZM53.8101 91.3034V78.1602C53.8101 77.7807 53.6704 77.4411 53.4109 77.1615C53.1514 76.8819 52.8121 76.742 52.393 76.742H50.936V92.8015H52.393C52.7722 92.8015 53.0916 92.6617 53.3909 92.3821C53.6704 92.0625 53.8101 91.7229 53.8101 91.3034ZM56.7042 70.0306V72.7272C56.7042 74.2253 56.1054 75.4037 54.9278 76.2427C56.1054 77.1415 56.7042 78.34 56.7042 79.8181V89.2061C56.7042 90.4046 56.285 91.4433 55.4268 92.3022C54.5885 93.1611 53.5706 93.6005 52.373 93.6005H48.0618V65.6562H52.373C53.5506 65.6562 54.5685 66.0757 55.4268 66.9545C56.285 67.8134 56.7042 68.8321 56.7042 70.0306ZM28.4619 82.5346H31.815L30.1584 68.972L28.4619 82.5346ZM33.1723 93.6005L31.9148 83.3935H28.3222L27.0647 93.6005H26.2264L29.7393 65.6562H32.5735L36.0863 93.6005H33.1723Z" fill="white"/>
</g>
<defs>
<clipPath id="clip0_601_4087">
<rect width="186" height="94" fill="white"/>
</clipPath>
</defs>
</svg>
