<svg width="154" height="43" viewBox="0 0 154 43" fill="none" xmlns="http://www.w3.org/2000/svg">
<path d="M4.42729 40.2308C3.8662 40.2308 3.35506 40.1386 2.89388 39.9541C2.43271 39.7696 2.03686 39.5006 1.70635 39.147C1.37584 38.7935 1.11835 38.3592 0.933882 37.8442C0.757098 37.3215 0.668706 36.7259 0.668706 36.0572C0.668706 35.3884 0.768628 34.7966 0.968471 34.2816C1.176 33.759 1.45271 33.3208 1.79859 32.9673C2.14447 32.6137 2.548 32.3447 3.00918 32.1602C3.47035 31.9757 3.96228 31.8835 4.48494 31.8835C4.81545 31.8835 5.11137 31.9066 5.37271 31.9527C5.64173 31.9988 5.87231 32.0526 6.06447 32.1141C6.26431 32.1756 6.42573 32.2371 6.54871 32.2986C6.67169 32.3601 6.75624 32.4062 6.80235 32.4369L6.47953 33.3593C6.41035 33.3132 6.31043 33.2632 6.17977 33.2094C6.0491 33.1556 5.89922 33.1018 5.73012 33.048C5.56871 32.9942 5.38808 32.9519 5.18824 32.9212C4.99608 32.8827 4.80008 32.8635 4.60024 32.8635C4.17749 32.8635 3.79702 32.9365 3.45882 33.0826C3.12063 33.2286 2.83239 33.44 2.59412 33.7167C2.35584 33.9934 2.17137 34.3316 2.04071 34.7313C1.91773 35.1233 1.85624 35.5652 1.85624 36.0572C1.85624 36.5337 1.91004 36.968 2.01765 37.36C2.13294 37.752 2.30204 38.0902 2.52494 38.3746C2.74784 38.6513 3.02455 38.8665 3.35506 39.0202C3.69326 39.1739 4.08526 39.2508 4.53106 39.2508C5.04604 39.2508 5.47263 39.197 5.81082 39.0894C6.14902 38.9818 6.40267 38.8857 6.57177 38.8012L6.86 39.7235C6.8062 39.7619 6.71012 39.8119 6.57177 39.8734C6.43341 39.9272 6.26047 39.981 6.05294 40.0348C5.84541 40.0886 5.6033 40.1347 5.32659 40.1732C5.04988 40.2116 4.75012 40.2308 4.42729 40.2308ZM15.2023 34.1087C15.2023 34.3854 15.1446 34.6544 15.0293 34.9157C14.9217 35.1694 14.7757 35.423 14.5912 35.6767C14.4067 35.9226 14.1992 36.1686 13.9686 36.4146C13.738 36.6528 13.5074 36.8873 13.2768 37.1179C13.1462 37.2485 12.9924 37.4023 12.8157 37.579C12.6466 37.7558 12.4852 37.9403 12.3314 38.1324C12.1777 38.3246 12.047 38.5091 11.9394 38.6859C11.8395 38.8626 11.7895 39.0164 11.7895 39.147H15.4674V40.0579H10.6251C10.6174 40.0117 10.6135 39.9656 10.6135 39.9195C10.6135 39.8734 10.6135 39.8311 10.6135 39.7927C10.6135 39.4314 10.6712 39.0971 10.7865 38.7896C10.9095 38.4745 11.067 38.1786 11.2592 37.9019C11.4513 37.6252 11.6666 37.3638 11.9048 37.1179C12.1431 36.8719 12.3775 36.6336 12.6081 36.403C12.8003 36.2186 12.9809 36.0379 13.15 35.8612C13.3268 35.6767 13.4805 35.4961 13.6112 35.3193C13.7495 35.1348 13.8572 34.9465 13.934 34.7543C14.0186 34.5622 14.0608 34.3585 14.0608 34.1433C14.0608 33.9127 14.0224 33.7167 13.9455 33.5553C13.8764 33.3939 13.7803 33.2594 13.6573 33.1517C13.5343 33.0441 13.3883 32.9673 13.2192 32.9212C13.0578 32.8674 12.8848 32.8404 12.7004 32.8404C12.4775 32.8404 12.2738 32.8712 12.0893 32.9327C11.9048 32.9942 11.7396 33.0672 11.5935 33.1517C11.4475 33.2286 11.3245 33.3132 11.2246 33.4054C11.1247 33.4899 11.0478 33.5553 10.994 33.6014L10.4637 32.8404C10.5328 32.7636 10.6366 32.6714 10.775 32.5637C10.9133 32.4484 11.0786 32.3408 11.2707 32.2409C11.4629 32.141 11.6781 32.0564 11.9164 31.9873C12.1546 31.9181 12.4121 31.8835 12.6888 31.8835C13.5266 31.8835 14.1531 32.0795 14.5681 32.4715C14.9909 32.8558 15.2023 33.4015 15.2023 34.1087ZM16.9023 36.0572C16.9023 34.7197 17.1367 33.6898 17.6056 32.9673C18.0821 32.2448 18.7393 31.8835 19.5771 31.8835C20.4149 31.8835 21.0683 32.2448 21.5371 32.9673C22.0137 33.6898 22.2519 34.7197 22.2519 36.0572C22.2519 37.3946 22.0137 38.4245 21.5371 39.147C21.0683 39.8695 20.4149 40.2308 19.5771 40.2308C18.7393 40.2308 18.0821 39.8695 17.6056 39.147C17.1367 38.4245 16.9023 37.3946 16.9023 36.0572ZM21.1221 36.0572C21.1221 35.619 21.0952 35.204 21.0414 34.812C20.9952 34.42 20.9107 34.0779 20.7877 33.7859C20.6724 33.4938 20.5148 33.2632 20.315 33.0941C20.1152 32.9173 19.8692 32.8289 19.5771 32.8289C19.285 32.8289 19.0391 32.9173 18.8392 33.0941C18.6394 33.2632 18.478 33.4938 18.355 33.7859C18.2397 34.0779 18.1552 34.42 18.1014 34.812C18.0552 35.204 18.0322 35.619 18.0322 36.0572C18.0322 36.4953 18.0552 36.9103 18.1014 37.3023C18.1552 37.6943 18.2397 38.0364 18.355 38.3284C18.478 38.6205 18.6394 38.855 18.8392 39.0317C19.0391 39.2008 19.285 39.2854 19.5771 39.2854C19.8692 39.2854 20.1152 39.2008 20.315 39.0317C20.5148 38.855 20.6724 38.6205 20.7877 38.3284C20.9107 38.0364 20.9952 37.6943 21.0414 37.3023C21.0952 36.9103 21.1221 36.4953 21.1221 36.0572ZM23.4101 36.0572C23.4101 34.7197 23.6445 33.6898 24.1134 32.9673C24.59 32.2448 25.2471 31.8835 26.0849 31.8835C26.9227 31.8835 27.5761 32.2448 28.0449 32.9673C28.5215 33.6898 28.7598 34.7197 28.7598 36.0572C28.7598 37.3946 28.5215 38.4245 28.0449 39.147C27.5761 39.8695 26.9227 40.2308 26.0849 40.2308C25.2471 40.2308 24.59 39.8695 24.1134 39.147C23.6445 38.4245 23.4101 37.3946 23.4101 36.0572ZM27.6299 36.0572C27.6299 35.619 27.603 35.204 27.5492 34.812C27.5031 34.42 27.4185 34.0779 27.2955 33.7859C27.1802 33.4938 27.0227 33.2632 26.8228 33.0941C26.623 32.9173 26.377 32.8289 26.0849 32.8289C25.7929 32.8289 25.5469 32.9173 25.3471 33.0941C25.1472 33.2632 24.9858 33.4938 24.8628 33.7859C24.7475 34.0779 24.663 34.42 24.6092 34.812C24.5631 35.204 24.54 35.619 24.54 36.0572C24.54 36.4953 24.5631 36.9103 24.6092 37.3023C24.663 37.6943 24.7475 38.0364 24.8628 38.3284C24.9858 38.6205 25.1472 38.855 25.3471 39.0317C25.5469 39.2008 25.7929 39.2854 26.0849 39.2854C26.377 39.2854 26.623 39.2008 26.8228 39.0317C27.0227 38.855 27.1802 38.6205 27.2955 38.3284C27.4185 38.0364 27.5031 37.6943 27.5492 37.3023C27.603 36.9103 27.6299 36.4953 27.6299 36.0572ZM35.1177 35.2616C35.1177 36.845 34.7218 38.0441 33.9302 38.8588C33.1462 39.6659 31.9778 40.0732 30.4252 40.0809L30.3906 39.1816C30.8749 39.1816 31.3091 39.1355 31.6935 39.0433C32.0855 38.951 32.4275 38.805 32.7196 38.6052C33.0117 38.3976 33.2538 38.1324 33.4459 37.8096C33.6458 37.4868 33.7918 37.091 33.884 36.6221C33.6842 36.7143 33.4575 36.7912 33.2038 36.8527C32.9502 36.9065 32.6888 36.9334 32.4198 36.9334C31.9663 36.9334 31.582 36.8681 31.2669 36.7374C30.9517 36.599 30.6942 36.4184 30.4944 36.1955C30.2946 35.9649 30.1485 35.7036 30.0563 35.4115C29.9717 35.1117 29.9295 34.8004 29.9295 34.4776C29.9295 34.1932 29.9794 33.8973 30.0793 33.5899C30.1793 33.2824 30.3291 33.0019 30.529 32.7482C30.7365 32.4946 30.9978 32.287 31.313 32.1256C31.6281 31.9642 32.0009 31.8835 32.4313 31.8835C32.8695 31.8835 33.2538 31.9604 33.5843 32.1141C33.9225 32.2678 34.203 32.4907 34.4259 32.7828C34.6565 33.0749 34.8295 33.4323 34.9448 33.855C35.06 34.2701 35.1177 34.739 35.1177 35.2616ZM32.5351 36.0572C32.8041 36.0572 33.0578 36.0341 33.296 35.988C33.5343 35.9342 33.7649 35.8573 33.9878 35.7574C33.9955 35.6728 33.9993 35.5921 33.9993 35.5153C33.9993 35.4307 33.9993 35.3462 33.9993 35.2616C33.9993 34.9311 33.9763 34.616 33.9302 34.3162C33.884 34.0088 33.7995 33.7436 33.6765 33.5207C33.5612 33.2901 33.4037 33.1095 33.2038 32.9788C33.004 32.8404 32.7503 32.7713 32.4429 32.7713C32.1892 32.7713 31.974 32.8251 31.7972 32.9327C31.6204 33.0403 31.4744 33.1786 31.3591 33.3477C31.2438 33.5092 31.1593 33.6898 31.1055 33.8896C31.0593 34.0818 31.0363 34.2701 31.0363 34.4546C31.0363 34.9772 31.1593 35.3769 31.4052 35.6536C31.6589 35.9226 32.0355 36.0572 32.5351 36.0572ZM40.4841 34.9619H37.8439V40.0579H36.7716V34.0626H40.4841V34.9619ZM45.3082 39.2508C45.3543 39.2585 45.4196 39.2662 45.5042 39.2739C45.5887 39.2815 45.6848 39.2892 45.7924 39.2969C45.9 39.2969 46.0115 39.3008 46.1267 39.3084C46.2497 39.3084 46.365 39.3084 46.4726 39.3084C46.6955 39.3084 46.9069 39.2931 47.1068 39.2623C47.3143 39.2316 47.4911 39.1778 47.6371 39.1009C47.7908 39.0241 47.91 38.9241 47.9945 38.8012C48.0868 38.6705 48.1329 38.5052 48.1329 38.3054C48.1329 38.1132 48.0906 37.9557 48.006 37.8327C47.9292 37.702 47.8216 37.5983 47.6832 37.5214C47.5449 37.4445 47.3796 37.3907 47.1875 37.36C47.003 37.3292 46.8031 37.3139 46.5879 37.3139H45.3082V39.2508ZM46.4496 36.5183C46.6571 36.5183 46.8454 36.5068 47.0145 36.4837C47.1913 36.453 47.3412 36.403 47.4642 36.3339C47.5948 36.2647 47.6948 36.1724 47.7639 36.0572C47.8408 35.9419 47.8792 35.7958 47.8792 35.619C47.8792 35.4346 47.8331 35.2885 47.7409 35.1809C47.6486 35.0733 47.5257 34.9926 47.3719 34.9388C47.2259 34.8773 47.0568 34.8389 46.8646 34.8235C46.6802 34.8004 46.4918 34.7889 46.2997 34.7889C46.1229 34.7889 45.9423 34.7928 45.7578 34.8004C45.581 34.8081 45.4311 34.8158 45.3082 34.8235V36.5183H46.4496ZM46.4265 40.1616C45.973 40.1616 45.5541 40.1386 45.1698 40.0924C44.7855 40.054 44.4819 40.0079 44.259 39.9541V34.1202C44.4819 34.0664 44.7855 34.0203 45.1698 33.9819C45.5541 33.9357 45.973 33.9127 46.4265 33.9127C46.7417 33.9127 47.0491 33.9396 47.3489 33.9934C47.6486 34.0472 47.9138 34.1394 48.1444 34.2701C48.375 34.3931 48.5595 34.566 48.6978 34.7889C48.8438 35.0041 48.9169 35.2732 48.9169 35.596C48.9169 35.8881 48.8438 36.1379 48.6978 36.3454C48.5518 36.5529 48.3558 36.7143 48.1098 36.8296C48.4403 36.9449 48.7017 37.1179 48.8938 37.3484C49.0937 37.5714 49.1936 37.8865 49.1936 38.2939C49.1936 38.6551 49.1206 38.9549 48.9745 39.1932C48.8362 39.4314 48.6402 39.6236 48.3865 39.7696C48.1406 39.9157 47.8485 40.0156 47.5103 40.0694C47.1721 40.1309 46.8108 40.1616 46.4265 40.1616ZM58.2822 34.0626V40.0579H57.2445V35.4922C57.0139 35.7843 56.7603 36.1263 56.4836 36.5183C56.2069 36.9103 55.9302 37.3177 55.6535 37.7404C55.3768 38.1555 55.1116 38.5667 54.8579 38.9741C54.6043 39.3815 54.3852 39.7427 54.2008 40.0579H53.2438V34.0626H54.2815V38.3746C54.4813 38.0441 54.7081 37.6828 54.9617 37.2908C55.2154 36.8911 55.4767 36.4991 55.7457 36.1148C56.0224 35.7228 56.2953 35.35 56.5643 34.9964C56.841 34.6352 57.0985 34.3239 57.3368 34.0626H58.2822ZM65.0347 40.0579H63.9625V37.4061H61.1954V40.0579H60.1232V34.0626H61.1954V36.5068H63.9625V34.0626H65.0347V40.0579ZM71.11 34.0626V34.9619H69.1615V40.0579H68.0893V34.9619H66.1408V34.0626H71.11ZM71.8812 37.0717C71.8812 36.5414 71.9581 36.0802 72.1118 35.6882C72.2655 35.2885 72.4692 34.958 72.7229 34.6967C72.9765 34.4354 73.2686 34.2394 73.5991 34.1087C73.9296 33.978 74.2678 33.9127 74.6137 33.9127C75.4207 33.9127 76.0395 34.1663 76.4699 34.6736C76.9003 35.1732 77.1156 35.938 77.1156 36.968C77.1156 37.0141 77.1156 37.0756 77.1156 37.1524C77.1156 37.2216 77.1117 37.287 77.104 37.3484H72.9996C73.0457 37.971 73.2263 38.4437 73.5414 38.7666C73.8566 39.0894 74.3485 39.2508 75.0172 39.2508C75.3938 39.2508 75.709 39.2201 75.9626 39.1586C76.224 39.0894 76.42 39.0241 76.5506 38.9626L76.7005 39.8619C76.5698 39.931 76.3392 40.0041 76.0087 40.0809C75.6859 40.1578 75.317 40.1962 74.9019 40.1962C74.3792 40.1962 73.9258 40.1194 73.5414 39.9656C73.1648 39.8042 72.8535 39.5852 72.6076 39.3084C72.3616 39.0317 72.1771 38.7051 72.0541 38.3284C71.9389 37.9441 71.8812 37.5252 71.8812 37.0717ZM75.9972 36.4837C76.0049 35.9995 75.8819 35.6037 75.6283 35.2962C75.3823 34.9811 75.0403 34.8235 74.6021 34.8235C74.3562 34.8235 74.1371 34.8735 73.945 34.9734C73.7605 35.0656 73.6029 35.1886 73.4723 35.3423C73.3416 35.4961 73.2378 35.6728 73.161 35.8727C73.0918 36.0725 73.0457 36.2762 73.0226 36.4837H75.9972ZM82.8179 37.0717C82.8179 36.3723 82.645 35.8343 82.2991 35.4576C81.9532 35.081 81.4921 34.8927 80.9156 34.8927C80.5928 34.8927 80.3391 34.9042 80.1546 34.9273C79.9779 34.9503 79.8357 34.9772 79.7281 35.008V38.7896C79.8587 38.8972 80.047 39.001 80.293 39.1009C80.539 39.2008 80.808 39.2508 81.1001 39.2508C81.4075 39.2508 81.6688 39.197 81.8841 39.0894C82.107 38.9741 82.2876 38.8204 82.4259 38.6282C82.5643 38.4284 82.6642 38.1978 82.7257 37.9364C82.7872 37.6674 82.8179 37.3792 82.8179 37.0717ZM83.9363 37.0717C83.9363 37.5252 83.8748 37.9441 83.7518 38.3284C83.6365 38.7128 83.4636 39.0433 83.233 39.32C83.0024 39.5967 82.718 39.8119 82.3798 39.9656C82.0493 40.1194 81.6688 40.1962 81.2384 40.1962C80.8925 40.1962 80.5851 40.1501 80.3161 40.0579C80.0547 39.9656 79.8587 39.8772 79.7281 39.7927V42.1908H78.6558V34.247C78.9095 34.1855 79.2246 34.1202 79.6012 34.051C79.9855 33.9742 80.4275 33.9357 80.9271 33.9357C81.3883 33.9357 81.8034 34.0088 82.1723 34.1548C82.5412 34.3008 82.8564 34.5084 83.1177 34.7774C83.379 35.0464 83.5789 35.3769 83.7172 35.7689C83.8633 36.1532 83.9363 36.5875 83.9363 37.0717ZM90.3566 40.0579H89.2844V37.4061H86.5173V40.0579H85.4451V34.0626H86.5173V36.5068H89.2844V34.0626H90.3566V40.0579ZM91.8663 37.0717C91.8663 36.5414 91.9431 36.0802 92.0969 35.6882C92.2506 35.2885 92.4543 34.958 92.7079 34.6967C92.9616 34.4354 93.2536 34.2394 93.5842 34.1087C93.9147 33.978 94.2529 33.9127 94.5987 33.9127C95.4058 33.9127 96.0245 34.1663 96.455 34.6736C96.8854 35.1732 97.1006 35.938 97.1006 36.968C97.1006 37.0141 97.1006 37.0756 97.1006 37.1524C97.1006 37.2216 97.0968 37.287 97.0891 37.3484H92.9846C93.0307 37.971 93.2114 38.4437 93.5265 38.7666C93.8416 39.0894 94.3336 39.2508 95.0023 39.2508C95.3789 39.2508 95.694 39.2201 95.9477 39.1586C96.209 39.0894 96.405 39.0241 96.5357 38.9626L96.6856 39.8619C96.5549 39.931 96.3243 40.0041 95.9938 40.0809C95.671 40.1578 95.302 40.1962 94.887 40.1962C94.3643 40.1962 93.9108 40.1194 93.5265 39.9656C93.1499 39.8042 92.8386 39.5852 92.5926 39.3084C92.3467 39.0317 92.1622 38.7051 92.0392 38.3284C91.9239 37.9441 91.8663 37.5252 91.8663 37.0717ZM95.9823 36.4837C95.99 35.9995 95.867 35.6037 95.6133 35.2962C95.3674 34.9811 95.0253 34.8235 94.5872 34.8235C94.3413 34.8235 94.1222 34.8735 93.93 34.9734C93.7456 35.0656 93.588 35.1886 93.4573 35.3423C93.3267 35.4961 93.2229 35.6728 93.146 35.8727C93.0769 36.0725 93.0307 36.2762 93.0077 36.4837H95.9823ZM102.872 34.0626V34.9619H100.924V40.0579H99.8515V34.9619H97.903V34.0626H102.872ZM103.006 36.1033H105.854V37.1063H103.006V36.1033ZM111.236 37.0717C111.236 36.3723 111.063 35.8343 110.717 35.4576C110.371 35.081 109.91 34.8927 109.334 34.8927C109.011 34.8927 108.757 34.9042 108.573 34.9273C108.396 34.9503 108.254 34.9772 108.146 35.008V38.7896C108.277 38.8972 108.465 39.001 108.711 39.1009C108.957 39.2008 109.226 39.2508 109.518 39.2508C109.826 39.2508 110.087 39.197 110.302 39.0894C110.525 38.9741 110.706 38.8204 110.844 38.6282C110.982 38.4284 111.082 38.1978 111.144 37.9364C111.205 37.6674 111.236 37.3792 111.236 37.0717ZM112.354 37.0717C112.354 37.5252 112.293 37.9441 112.17 38.3284C112.055 38.7128 111.882 39.0433 111.651 39.32C111.421 39.5967 111.136 39.8119 110.798 39.9656C110.468 40.1194 110.087 40.1962 109.657 40.1962C109.311 40.1962 109.003 40.1501 108.734 40.0579C108.473 39.9656 108.277 39.8772 108.146 39.7927V42.1908H107.074V34.247C107.328 34.1855 107.643 34.1202 108.019 34.051C108.404 33.9742 108.846 33.9357 109.345 33.9357C109.806 33.9357 110.222 34.0088 110.59 34.1548C110.959 34.3008 111.275 34.5084 111.536 34.7774C111.797 35.0464 111.997 35.3769 112.135 35.7689C112.281 36.1532 112.354 36.5875 112.354 37.0717ZM113.529 37.0717C113.529 36.5414 113.606 36.0802 113.76 35.6882C113.913 35.2885 114.117 34.958 114.371 34.6967C114.624 34.4354 114.916 34.2394 115.247 34.1087C115.577 33.978 115.916 33.9127 116.261 33.9127C117.068 33.9127 117.687 34.1663 118.118 34.6736C118.548 35.1732 118.763 35.938 118.763 36.968C118.763 37.0141 118.763 37.0756 118.763 37.1524C118.763 37.2216 118.759 37.287 118.752 37.3484H114.647C114.693 37.971 114.874 38.4437 115.189 38.7666C115.504 39.0894 115.996 39.2508 116.665 39.2508C117.042 39.2508 117.357 39.2201 117.61 39.1586C117.872 39.0894 118.068 39.0241 118.198 38.9626L118.348 39.8619C118.218 39.931 117.987 40.0041 117.656 40.0809C117.334 40.1578 116.965 40.1962 116.55 40.1962C116.027 40.1962 115.574 40.1194 115.189 39.9656C114.813 39.8042 114.501 39.5852 114.255 39.3084C114.009 39.0317 113.825 38.7051 113.702 38.3284C113.587 37.9441 113.529 37.5252 113.529 37.0717ZM117.645 36.4837C117.653 35.9995 117.53 35.6037 117.276 35.2962C117.03 34.9811 116.688 34.8235 116.25 34.8235C116.004 34.8235 115.785 34.8735 115.593 34.9734C115.408 35.0656 115.251 35.1886 115.12 35.3423C114.989 35.4961 114.886 35.6728 114.809 35.8727C114.74 36.0725 114.693 36.2762 114.67 36.4837H117.645ZM122.494 36.795C122.732 36.9641 122.99 37.1794 123.267 37.4407C123.543 37.6943 123.812 37.971 124.074 38.2708C124.343 38.5706 124.593 38.878 124.823 39.1932C125.054 39.5006 125.25 39.7888 125.411 40.0579H124.143C123.974 39.7965 123.774 39.5314 123.543 39.2623C123.32 38.9856 123.086 38.7204 122.84 38.4668C122.594 38.2132 122.344 37.9787 122.091 37.7635C121.837 37.5483 121.599 37.3677 121.376 37.2216V40.0579H120.304V34.0626H121.376V36.6336C121.56 36.4568 121.772 36.2532 122.01 36.0226C122.248 35.7843 122.486 35.546 122.725 35.3077C122.971 35.0618 123.197 34.8312 123.405 34.616C123.613 34.3931 123.782 34.2086 123.912 34.0626H125.157C124.988 34.247 124.789 34.4584 124.558 34.6967C124.335 34.9273 124.101 35.1655 123.855 35.4115C123.616 35.6575 123.378 35.9034 123.14 36.1494C122.902 36.3877 122.686 36.6029 122.494 36.795ZM128.831 34.9619C128.831 35.2155 128.823 35.4884 128.808 35.7804C128.8 36.0648 128.781 36.3531 128.75 36.6452C128.719 36.9295 128.677 37.2139 128.623 37.4983C128.569 37.775 128.5 38.0364 128.416 38.2823C128.331 38.5283 128.223 38.7589 128.093 38.9741C127.97 39.1893 127.816 39.3815 127.632 39.5506C127.447 39.712 127.232 39.8503 126.986 39.9656C126.74 40.0732 126.452 40.1424 126.121 40.1732L125.971 39.2739C126.348 39.197 126.644 39.0548 126.859 38.8473C127.082 38.6397 127.259 38.3861 127.389 38.0863C127.505 37.825 127.589 37.5291 127.643 37.1986C127.697 36.8681 127.735 36.526 127.758 36.1724C127.781 35.8112 127.793 35.4499 127.793 35.0887C127.801 34.7274 127.805 34.3854 127.805 34.0626H131.794V40.0579H130.721V34.9619H128.831ZM135.664 39.2854C135.917 39.2854 136.14 39.2815 136.332 39.2739C136.532 39.2585 136.697 39.2354 136.828 39.2047V37.4176C136.751 37.3792 136.624 37.3484 136.448 37.3254C136.279 37.2946 136.071 37.2793 135.825 37.2793C135.664 37.2793 135.491 37.2908 135.306 37.3139C135.129 37.3369 134.964 37.3869 134.81 37.4637C134.664 37.5329 134.541 37.6328 134.442 37.7635C134.342 37.8865 134.292 38.0517 134.292 38.2593C134.292 38.6436 134.415 38.9126 134.661 39.0663C134.907 39.2124 135.241 39.2854 135.664 39.2854ZM135.571 33.9127C136.002 33.9127 136.363 33.9703 136.655 34.0856C136.955 34.1932 137.193 34.3508 137.37 34.5583C137.554 34.7582 137.685 35.0003 137.762 35.2847C137.839 35.5614 137.877 35.8688 137.877 36.207V39.9541C137.785 39.9695 137.654 39.9925 137.485 40.0233C137.324 40.0463 137.139 40.0694 136.932 40.0924C136.724 40.1155 136.498 40.1347 136.252 40.1501C136.013 40.1732 135.775 40.1847 135.537 40.1847C135.199 40.1847 134.887 40.1501 134.603 40.0809C134.319 40.0117 134.073 39.9041 133.865 39.7581C133.658 39.6044 133.496 39.4045 133.381 39.1586C133.266 38.9126 133.208 38.6167 133.208 38.2708C133.208 37.9403 133.273 37.6559 133.404 37.4176C133.542 37.1794 133.727 36.9872 133.957 36.8412C134.188 36.6951 134.457 36.5875 134.764 36.5183C135.072 36.4492 135.395 36.4146 135.733 36.4146C135.84 36.4146 135.952 36.4223 136.067 36.4376C136.182 36.4453 136.29 36.4607 136.39 36.4837C136.498 36.4991 136.59 36.5145 136.667 36.5299C136.744 36.5452 136.797 36.5568 136.828 36.5644V36.2647C136.828 36.0879 136.809 35.915 136.77 35.7459C136.732 35.5691 136.663 35.4154 136.563 35.2847C136.463 35.1463 136.325 35.0387 136.148 34.9619C135.979 34.8773 135.756 34.835 135.479 34.835C135.126 34.835 134.814 34.8619 134.545 34.9157C134.284 34.9619 134.088 35.0118 133.957 35.0656L133.83 34.1779C133.969 34.1164 134.199 34.0587 134.522 34.0049C134.845 33.9434 135.195 33.9127 135.571 33.9127ZM140.8 35.6421C140.723 36.403 140.665 37.164 140.627 37.9249C140.588 38.6782 140.557 39.3892 140.534 40.0579H139.508C139.524 39.589 139.547 39.1009 139.577 38.5936C139.608 38.0786 139.643 37.5637 139.681 37.0487C139.72 36.526 139.762 36.0149 139.808 35.5153C139.854 35.008 139.904 34.5237 139.958 34.0626H140.938C141.184 34.4623 141.472 35.0118 141.803 35.7113C142.133 36.403 142.514 37.2024 142.944 38.1094C143.374 37.2024 143.755 36.403 144.085 35.7113C144.416 35.0118 144.704 34.4623 144.95 34.0626H145.942C145.995 34.5237 146.045 35.008 146.092 35.5153C146.138 36.0149 146.18 36.526 146.218 37.0487C146.257 37.5637 146.291 38.0786 146.322 38.5936C146.353 39.1009 146.376 39.589 146.391 40.0579H145.331C145.308 39.3892 145.277 38.6782 145.238 37.9249C145.2 37.164 145.142 36.403 145.065 35.6421C144.942 35.8804 144.8 36.1686 144.639 36.5068C144.477 36.8373 144.316 37.1755 144.155 37.5214C144.001 37.8673 143.855 38.1978 143.716 38.5129C143.578 38.8281 143.471 39.0779 143.394 39.2623H142.494C142.41 39.0702 142.295 38.8165 142.148 38.5014C142.01 38.1863 141.86 37.8557 141.699 37.5099C141.545 37.1563 141.388 36.8143 141.226 36.4837C141.065 36.1455 140.923 35.865 140.8 35.6421ZM147.757 37.0717C147.757 36.5414 147.834 36.0802 147.987 35.6882C148.141 35.2885 148.345 34.958 148.599 34.6967C148.852 34.4354 149.144 34.2394 149.475 34.1087C149.805 33.978 150.143 33.9127 150.489 33.9127C151.296 33.9127 151.915 34.1663 152.346 34.6736C152.776 35.1732 152.991 35.938 152.991 36.968C152.991 37.0141 152.991 37.0756 152.991 37.1524C152.991 37.2216 152.987 37.287 152.98 37.3484H148.875C148.921 37.971 149.102 38.4437 149.417 38.7666C149.732 39.0894 150.224 39.2508 150.893 39.2508C151.27 39.2508 151.585 39.2201 151.838 39.1586C152.1 39.0894 152.296 39.0241 152.426 38.9626L152.576 39.8619C152.446 39.931 152.215 40.0041 151.884 40.0809C151.562 40.1578 151.193 40.1962 150.778 40.1962C150.255 40.1962 149.801 40.1194 149.417 39.9656C149.041 39.8042 148.729 39.5852 148.483 39.3084C148.237 39.0317 148.053 38.7051 147.93 38.3284C147.815 37.9441 147.757 37.5252 147.757 37.0717ZM151.873 36.4837C151.881 35.9995 151.758 35.6037 151.504 35.2962C151.258 34.9811 150.916 34.8235 150.478 34.8235C150.232 34.8235 150.013 34.8735 149.821 34.9734C149.636 35.0656 149.479 35.1886 149.348 35.3423C149.217 35.4961 149.114 35.6728 149.037 35.8727C148.967 36.0725 148.921 36.2762 148.898 36.4837H151.873Z" fill="#C4C4C4"/>
<path d="M29.2683 22.9407C27.3915 22.9407 25.5712 22.7083 23.8074 22.2436C22.0663 21.7578 20.6643 21.1346 19.6016 20.3741L21.4671 16.5084C22.4846 17.2055 23.6944 17.7653 25.0963 18.1878C26.4983 18.6103 27.9002 18.8215 29.3022 18.8215C30.8624 18.8215 32.0157 18.6103 32.7619 18.1878C33.5081 17.7442 33.8812 17.1633 33.8812 16.4451C33.8812 15.917 33.6551 15.4839 33.2028 15.1459C32.7732 14.7868 32.2079 14.5016 31.5069 14.2904C30.8285 14.0792 29.9014 13.8468 28.7256 13.5933C26.9166 13.192 25.4355 12.7906 24.2823 12.3892C23.1291 11.9879 22.1341 11.3436 21.2975 10.4564C20.4834 9.56919 20.0764 8.38624 20.0764 6.90756C20.0764 5.61899 20.4495 4.45717 21.1957 3.42209C21.9419 2.36589 23.0612 1.53149 24.5536 0.918895C26.0687 0.306298 27.9116 0 30.0823 0C31.5973 0 33.0784 0.168992 34.5256 0.506976C35.9728 0.844961 37.2391 1.33081 38.3245 1.96453L36.6286 5.86192C34.4352 4.7001 32.2418 4.11919 30.0484 4.11919C28.5108 4.11919 27.3689 4.35155 26.6227 4.81628C25.8991 5.28101 25.5373 5.8936 25.5373 6.65407C25.5373 7.41454 25.9556 7.98488 26.7922 8.36512C27.6515 8.72423 28.9517 9.08333 30.6929 9.44244C32.5018 9.8438 33.9829 10.2452 35.1362 10.6465C36.2894 11.0479 37.273 11.6816 38.087 12.5477C38.9237 13.4138 39.342 14.5861 39.342 16.0648C39.342 17.3323 38.9576 18.4941 38.1888 19.5503C37.4426 20.5854 36.312 21.4092 34.797 22.0218C33.282 22.6344 31.4391 22.9407 29.2683 22.9407Z" fill="white"/>
<path d="M61.4804 18.4413V22.5605H43.0966V0.380231H61.0394V4.49942H48.5575V9.3157H59.5809V13.3081H48.5575V18.4413H61.4804Z" fill="white"/>
<path d="M77.2844 22.9407C74.8197 22.9407 72.5924 22.4443 70.6025 21.4515C68.6353 20.4586 67.0863 19.0961 65.9557 17.364C64.8477 15.6107 64.2937 13.6461 64.2937 11.4703C64.2937 9.29457 64.8477 7.3406 65.9557 5.60843C67.0863 3.85513 68.6353 2.48207 70.6025 1.48924C72.5924 0.496415 74.8197 0 77.2844 0C79.7492 0 81.9652 0.496415 83.9324 1.48924C85.8997 2.48207 87.4486 3.85513 88.5792 5.60843C89.7099 7.3406 90.2752 9.29457 90.2752 11.4703C90.2752 13.6461 89.7099 15.6107 88.5792 17.364C87.4486 19.0961 85.8997 20.4586 83.9324 21.4515C81.9652 22.4443 79.7492 22.9407 77.2844 22.9407ZM77.2844 18.568C78.6864 18.568 79.9527 18.2723 81.0833 17.6808C82.2139 17.0682 83.0958 16.2233 83.7289 15.1459C84.3847 14.0686 84.7125 12.8434 84.7125 11.4703C84.7125 10.0973 84.3847 8.87209 83.7289 7.79477C83.0958 6.71744 82.2139 5.88304 81.0833 5.29157C79.9527 4.67897 78.6864 4.37267 77.2844 4.37267C75.8825 4.37267 74.6162 4.67897 73.4856 5.29157C72.355 5.88304 71.4618 6.71744 70.806 7.79477C70.1729 8.87209 69.8563 10.0973 69.8563 11.4703C69.8563 12.8434 70.1729 14.0686 70.806 15.1459C71.4618 16.2233 72.355 17.0682 73.4856 17.6808C74.6162 18.2723 75.8825 18.568 77.2844 18.568Z" fill="white"/>
<path d="M96.1228 10.909H99.4599V21.6603H96.1228V10.909ZM97.7914 9.41022C97.1782 9.41022 96.679 9.24368 96.294 8.91062C95.9089 8.57756 95.7164 8.16456 95.7164 7.67162C95.7164 7.17869 95.9089 6.76569 96.294 6.43263C96.679 6.09956 97.1782 5.93303 97.7914 5.93303C98.4046 5.93303 98.9038 6.0929 99.2888 6.41264C99.6739 6.73239 99.8664 7.13206 99.8664 7.61167C99.8664 8.13125 99.6739 8.56423 99.2888 8.91062C98.9038 9.24368 98.4046 9.41022 97.7914 9.41022Z" fill="white"/>
<path d="M109.552 10.7491C110.978 10.7491 112.126 11.1488 112.996 11.9482C113.88 12.7475 114.322 13.9332 114.322 15.5053V21.6603H110.985V15.9849C110.985 15.1322 110.786 14.4994 110.386 14.0864C109.987 13.6601 109.41 13.4469 108.654 13.4469C107.812 13.4469 107.142 13.6934 106.643 14.1863C106.144 14.666 105.894 15.3854 105.894 16.3446V21.6603H102.557V10.909H105.744V12.168C106.186 11.715 106.736 11.3686 107.392 11.1288C108.048 10.8757 108.768 10.7491 109.552 10.7491Z" fill="white"/>
<path d="M123.035 21.8202C121.808 21.8202 120.703 21.587 119.719 21.1207C118.749 20.6411 117.986 19.9817 117.43 19.1423C116.888 18.303 116.617 17.3505 116.617 16.2846C116.617 15.2188 116.888 14.2663 117.43 13.427C117.986 12.5876 118.749 11.9348 119.719 11.4685C120.703 10.9889 121.808 10.7491 123.035 10.7491C124.247 10.7491 125.302 10.9889 126.201 11.4685C127.113 11.9348 127.776 12.6076 128.19 13.4869L125.602 14.7859C125.003 13.8 124.14 13.3071 123.013 13.3071C122.143 13.3071 121.423 13.5735 120.853 14.1064C120.282 14.6393 119.997 15.3654 119.997 16.2846C119.997 17.2039 120.282 17.93 120.853 18.4629C121.423 18.9958 122.143 19.2622 123.013 19.2622C124.154 19.2622 125.017 18.7693 125.602 17.7834L128.19 19.1024C127.776 19.955 127.113 20.6211 126.201 21.1007C125.302 21.5804 124.247 21.8202 123.035 21.8202Z" fill="white"/>
<path d="M131.791 21.8202C131.207 21.8202 130.715 21.6336 130.315 21.2606C129.916 20.8876 129.716 20.4213 129.716 19.8618C129.716 19.2889 129.916 18.8293 130.315 18.4829C130.715 18.1232 131.207 17.9433 131.791 17.9433C132.376 17.9433 132.868 18.1232 133.267 18.4829C133.667 18.8293 133.866 19.2889 133.866 19.8618C133.866 20.4213 133.667 20.8876 133.267 21.2606C132.868 21.6336 132.376 21.8202 131.791 21.8202Z" fill="white"/>
<path fill-rule="evenodd" clip-rule="evenodd" d="M82.8269 11.7584H71.8419V11.0383H82.8269V11.7584Z" fill="white"/>
<path fill-rule="evenodd" clip-rule="evenodd" d="M77.0453 16.6193V6.35737L77.8162 6.35737V16.6193H77.0453Z" fill="white"/>
<path d="M79.7192 11.4703C79.7192 12.7373 78.6131 13.7644 77.2486 13.7644C75.8842 13.7644 74.778 12.7373 74.778 11.4703C74.778 10.2034 75.8842 9.17628 77.2486 9.17628C78.6131 9.17628 79.7192 10.2034 79.7192 11.4703Z" fill="white"/>
</svg>
